<?xml version="1.0" encoding="UTF-8"?>
<svg id="Camada_1" data-name="Camada 1" xmlns="http://www.w3.org/2000/svg" viewBox="0 0 500 500">
  <defs>
    <style>
      .cls-1 {
        fill: #2B674B;
      }
    </style>
  </defs>
  <g>
    <path class="cls-1" d="M400.48,263.11c-.14,1.26-1.27,2.17-2.54,2.03l-17.19-1.91c-13.48-1.5-26.36-7.87-38.27-18.94-8.43-7.84-14.49-18.65-18.01-32.13-10.25-39.24-56.23-73.06-74.47-73.06s-64.23,33.82-74.47,73.07c-3.52,13.48-9.58,24.29-18.01,32.13-11.91,11.07-24.78,17.45-38.27,18.94l-17.19,1.91c-1.26.14-2.4-.77-2.54-2.03h0c-1.19-10.76,6.56-20.45,17.31-21.64h0c8.71-.97,17.39-5.41,25.78-13.22,5.33-4.96,9.28-12.24,11.73-21.62,12.89-49.37,67.11-89.43,95.66-89.43s82.77,40.06,95.66,89.43c2.45,9.39,6.4,16.67,11.73,21.63,8.39,7.8,17.06,12.25,25.78,13.21h0c10.76,1.19,18.51,10.88,17.31,21.64h0Z"/>
    <path class="cls-1" d="M335.08,252.35c-10.73-9.96-17.5-23.26-21.2-37.42-9.28-35.54-51.72-64.89-63.88-64.89s-54.6,29.35-63.88,64.89c-3.7,14.17-10.47,27.46-21.2,37.42-9.25,8.59-21.68,17.02-37,20.5-4.31.98-7.46,4.67-7.46,9.09v75.19h83.93v-65.68h91.23v65.68h83.93v-75.19c0-4.42-3.15-8.11-7.46-9.09-15.32-3.48-27.75-11.91-37-20.5ZM265.58,228.48h-31.16v-41.55h31.16v41.55Z"/>
  </g>
  <path class="cls-1" d="M250,476.48c-60.5,0-117.37-23.56-160.15-66.33-42.78-42.78-66.33-99.65-66.33-160.15s23.56-117.37,66.33-160.15S189.5,23.52,250,23.52s117.37,23.56,160.15,66.33c42.78,42.78,66.33,99.65,66.33,160.15s-23.56,117.37-66.33,160.15c-42.78,42.78-99.65,66.33-160.15,66.33ZM250,38.52c-116.61,0-211.48,94.87-211.48,211.48s94.87,211.48,211.48,211.48,211.48-94.87,211.48-211.48S366.61,38.52,250,38.52Z"/>
</svg>