<?xml version="1.0" encoding="UTF-8"?>
<svg id="Camada_1" data-name="Camada 1" xmlns="http://www.w3.org/2000/svg" viewBox="0 0 500 500">
  <defs>
    <style>
      .cls-1 {
        fill: #2B674B;
      }
    </style>
  </defs>
  <path class="cls-1" d="M250,476.48c-60.5,0-117.37-23.56-160.15-66.33-42.78-42.78-66.33-99.65-66.33-160.15s23.56-117.37,66.33-160.15S189.5,23.52,250,23.52s117.37,23.56,160.15,66.33c42.78,42.78,66.33,99.65,66.33,160.15s-23.56,117.37-66.33,160.15c-42.78,42.78-99.65,66.33-160.15,66.33ZM250,38.52c-116.61,0-211.48,94.87-211.48,211.48s94.87,211.48,211.48,211.48,211.48-94.87,211.48-211.48S366.61,38.52,250,38.52Z"/>
  <g>
    <rect class="cls-1" x="188.92" y="225.37" width="49.44" height="29.22"/>
    <path class="cls-1" d="M124.04,176.39c-4.28,0-7.76,4.89-7.76,10.92s3.47,10.92,7.76,10.92,7.76-4.89,7.76-10.92-3.47-10.92-7.76-10.92Z"/>
    <path class="cls-1" d="M246.74,353.44h77.02c24.67,0,44.75-22.29,44.75-49.7v-21.47h58.54v-7h-7.74v-44.41l7.74-.06-37.93-45.18h-64.55l-35.86,45.18,7.82.05v44.42h-5.65v7h67.29v21.47c0,21.71-15.44,39.37-34.42,39.37h-77.02M356.31,275.28h-23.82v-31.33h-14.78v31.33h-15.86v-44.37h.01v-4.93l-3.76-.03,26.47-33.35,30.32,38.71h1.41v43.97ZM413.98,275.28h-52.35v-43.93l52.35-.43v44.37Z"/>
    <rect class="cls-1" x="371.3" y="241.75" width="35.21" height="20.81"/>
    <path class="cls-1" d="M325.1,206.87c-3.05,0-5.52,3.48-5.52,7.78s2.47,7.78,5.52,7.78,5.52-3.48,5.52-7.78-2.47-7.78-5.52-7.78Z"/>
    <path class="cls-1" d="M249.46,343.11h-69.26c-18.98,0-34.42-17.66-34.42-39.37v-21.47h121.42v-9.83h-10.87v-62.36l10.87-.09-53.26-63.44h-90.64l-50.36,63.44,10.99.07v62.38h-7.93v9.83h59.45v21.47c0,27.4,20.07,49.7,44.75,49.7h69.26M175.34,210.76l73.51-.61v62.3h-73.51v-61.69ZM113.67,228.45v44h-22.27v-62.31h.02v-6.92l-5.28-.04,37.17-46.83,42.57,54.35h1.98v61.75h-33.44v-44h-20.75Z"/>
  </g>
</svg>