<?xml version="1.0" encoding="UTF-8"?>
<svg id="Camada_1" data-name="Camada 1" xmlns="http://www.w3.org/2000/svg" viewBox="0 0 500 500">
  <defs>
    <style>
      .cls-1 {
        fill: #2B674B;
      }
    </style>
  </defs>
  <path class="cls-1" d="M250,476.48c-60.5,0-117.37-23.56-160.15-66.33-42.78-42.78-66.33-99.65-66.33-160.15s23.56-117.37,66.33-160.15S189.5,23.52,250,23.52s117.37,23.56,160.15,66.33c42.78,42.78,66.33,99.65,66.33,160.15s-23.56,117.37-66.33,160.15c-42.78,42.78-99.65,66.33-160.15,66.33ZM250,38.52c-116.61,0-211.48,94.87-211.48,211.48s94.87,211.48,211.48,211.48,211.48-94.87,211.48-211.48S366.61,38.52,250,38.52Z"/>
  <g id="eIrxi7">
    <g>
      <path class="cls-1" d="M121.52,144.59h256.96v210.79c-.29,0-.58.03-.88.03-84.88,0-169.77,0-254.65,0-.44,0-.88-.05-1.39-.08,0-.72,0-1.3,0-1.88,0-69.04,0-138.07,0-207.11,0-.58-.03-1.17-.04-1.75ZM232.15,261.31c.43-.33.85-.66,1.28-.99,4.77-3.66,9.05-7.82,12.76-12.54,11.98-15.22,17.43-32.79,18.37-51.91.61-12.53-.95-24.84-4.24-36.94-.26-.96-.61-1.33-1.67-1.33-41.4.03-82.81.03-124.21.03-.44,0-.89.04-1.35.06v123.1h233.78v-46.53c-17.57,7.45-35.55,13.2-53.88,17.86-18.35,4.66-51.27,10.27-55.23,9.58,5.36-1.6,11.26-3.14,17.01-5.11,21.66-7.45,41.92-17.82,61.26-30.03,10.58-6.68,20.71-13.98,30.09-22.3.43-.38.83-1.09.83-1.65.04-14.55.04-29.11.03-43.66,0-.29-.07-.58-.13-1.06-.24.37-.36.54-.46.72-5.74,10.31-12.2,20.15-19.27,29.6-10.84,14.49-22.84,27.89-37.04,39.18-12.15,9.66-25.51,17.42-39.35,24.37-7.55,3.79-15.31,7.07-23.55,9.04-1.98.47-4,.75-6.01,1.12-.02-.12-.05-.24-.07-.36.3-.13.6-.24.9-.38,4.69-2.27,9.55-4.26,14.04-6.87,20.16-11.72,36.91-27.28,50.85-45.9,9.94-13.28,17.66-27.73,22.29-43.72.66-2.27,1.2-4.57,1.82-6.97h-36.86c0,.6-.02,1.09,0,1.59.35,9.58-.65,19.02-2.78,28.35-3.68,16.17-9.95,31.23-19.59,44.79-6.59,9.27-14.44,17.22-24.45,22.84-4.78,2.68-9.85,4.67-15.17,6ZM270.05,301.2c-.42-.06-.66-.12-.9-.12-7.73,0-15.47,0-23.2-.02-.82,0-1.06.37-1.27,1.04-1.65,5.29-3.33,10.58-5,15.87-.9,2.85-1.81,5.7-2.79,8.79-.2-.62-.32-.97-.44-1.32-2.43-7.67-4.87-15.34-7.26-23.02-.31-1.01-.74-1.36-1.82-1.36-7.4.05-14.8.03-22.2.03-.44,0-.88.04-1.3.06v43.62c.48.02.85.06,1.22.06,4.64,0,9.28-.03,13.92.03,1.09.01,1.42-.27,1.42-1.4-.05-8.28-.03-16.56-.03-24.84,0-.41,0-.82,0-1.23.29.2.38.39.45.59,3.01,8.53,6.04,17.06,9,25.61.33.96.78,1.28,1.78,1.26,3.51-.06,7.02-.06,10.54,0,.96.01,1.36-.31,1.68-1.22,2.86-8.23,5.78-16.45,8.68-24.66.17-.48.36-.96.55-1.43.08.02.16.05.24.07v1.37c0,8.15.02,16.31-.02,24.46,0,1.08.28,1.44,1.4,1.43,4.6-.06,9.2-.08,13.8,0,1.33.02,1.57-.43,1.57-1.65-.04-13.5-.02-27.01-.02-40.51v-1.48ZM166.12,319.13c.24.66.4,1.03.52,1.41,2.43,7.67,4.88,15.34,7.26,23.03.31.99.75,1.27,1.75,1.27,7.4-.04,14.8-.04,22.21,0,1.11,0,1.5-.24,1.5-1.45-.04-13.63-.03-27.27-.03-40.9,0-.44-.04-.88-.06-1.31h-16.62v27.35c-.33-.34-.49-.71-.62-1.09-2.95-8.38-5.92-16.75-8.84-25.14-.33-.95-.78-1.26-1.79-1.24-3.51.07-7.03.06-10.54,0-.93-.01-1.4.23-1.72,1.16-1.89,5.52-3.85,11.03-5.79,16.53-1.16,3.29-2.32,6.57-3.49,9.86l-.24-.04v-27.41h-16.51v43.57c.29.03.49.08.7.08,7.74,0,15.47,0,23.21.03.89,0,1.12-.46,1.33-1.15,1.53-4.9,3.07-9.79,4.62-14.68,1.01-3.2,2.03-6.4,3.14-9.88ZM359.45,301.24c-.24-.08-.32-.13-.39-.13-6.23-.01-12.46-.03-18.69,0-.39,0-.88.28-1.16.58-6.9,7.34-13.79,14.69-20.65,22.07-.3.33-.52.87-.53,1.32-.04,3.43-.02,6.86-.01,10.28,0,.23.1.46.18.8h24.62v8.57h16.69v-8.66h7.39v-10.78h-7.45v-24.04ZM302.66,344.73c.05-.3.12-.54.13-.78.32-6.86,3.11-12.73,7.21-18.08,4.16-5.43,9.24-9.88,14.8-13.8.77-.54,1.09-1.09,1.06-2.04-.07-2.51-.02-5.02-.02-7.53,0-.44,0-.88,0-1.31h-45.17v10.64h26.78c-2.83,2.26-5.83,4.39-8.52,6.86-6.37,5.85-11.09,12.8-13.18,21.32-.37,1.51-.52,3.07-.8,4.74h17.71Z"/>
      <path class="cls-1" d="M196.42,170.27c25.53-.07,46.46,20.78,46.52,46.34.06,25.8-20.62,46.6-46.4,46.67-25.66.07-46.54-20.69-46.62-46.35-.08-25.66,20.77-46.58,46.5-46.66Z"/>
      <path class="cls-1" d="M331.94,325.21c3.62-3.98,7.06-7.76,10.69-11.75v11.75h-10.69Z"/>
    </g>
  </g>
</svg>