<?xml version="1.0" encoding="UTF-8"?>
<svg id="Camada_1" data-name="Camada 1" xmlns="http://www.w3.org/2000/svg" viewBox="0 0 500 500">
  <defs>
    <style>
      .cls-1 {
        fill: #2B674B;
      }
    </style>
  </defs>
  <path class="cls-1" d="M250,476.48c-60.5,0-117.37-23.56-160.15-66.33-42.78-42.78-66.33-99.65-66.33-160.15s23.56-117.37,66.33-160.15S189.5,23.52,250,23.52s117.37,23.56,160.15,66.33c42.78,42.78,66.33,99.65,66.33,160.15s-23.56,117.37-66.33,160.15c-42.78,42.78-99.65,66.33-160.15,66.33ZM250,38.52c-116.61,0-211.48,94.87-211.48,211.48s94.87,211.48,211.48,211.48,211.48-94.87,211.48-211.48S366.61,38.52,250,38.52Z"/>
  <g>
    <g>
      <rect class="cls-1" x="96.35" y="317.1" width="307.78" height="26.84"/>
      <rect class="cls-1" x="96.35" y="263.42" width="307.78" height="26.84"/>
      <path class="cls-1" d="M404.12,182.9v-26.83h-230.27v.02h-77.53v80.67h80.67v-.17h227.13v-26.84h-227.13v-26.84h227.13ZM111.51,168.89l3.41-10.5,3.41,10.5h11.04l-8.93,6.49,3.41,10.5-8.93-6.49-8.93,6.49,3.41-10.5-8.93-6.49h11.04ZM123.78,230l-8.93-6.49-8.93,6.49,3.41-10.5-8.93-6.49h11.04l3.41-10.5,3.41,10.5h11.04l-8.93,6.49,3.41,10.5ZM136.75,200.04l-6.05,4.39,2.31-7.11-6.05-4.39h7.47l2.31-7.11,2.31,7.11h7.47l-6.05,4.39,2.31,7.11-6.05-4.39ZM167.85,230l-8.93-6.49-8.93,6.49,3.41-10.5-8.93-6.49h11.04l3.41-10.5,3.41,10.5h11.04l-8.93,6.49,3.41,10.5ZM164.44,175.38l3.41,10.5-8.93-6.49-8.93,6.49,3.41-10.5-8.93-6.49h11.04l3.41-10.5,3.41,10.5h11.04l-8.93,6.49Z"/>
    </g>
    <path class="cls-1" d="M404.18,342.38H95.38v-186.81h308.81v186.81ZM96.38,341.38h306.81v-184.81H96.38v184.81Z"/>
  </g>
</svg>