<?xml version="1.0" encoding="UTF-8"?>
<svg id="Camada_1" data-name="Camada 1" xmlns="http://www.w3.org/2000/svg" viewBox="0 0 500 500">
  <defs>
    <style>
      .cls-1 {
        fill-rule: evenodd;
      }

      .cls-1, .cls-2 {
        fill: #2B674B;
      }
    </style>
  </defs>
  <path class="cls-2" d="M250,476.48c-60.5,0-117.37-23.56-160.15-66.33-42.78-42.78-66.33-99.65-66.33-160.15s23.56-117.37,66.33-160.15S189.5,23.52,250,23.52s117.37,23.56,160.15,66.33c42.78,42.78,66.33,99.65,66.33,160.15s-23.56,117.37-66.33,160.15c-42.78,42.78-99.65,66.33-160.15,66.33ZM250,38.52c-116.61,0-211.48,94.87-211.48,211.48s94.87,211.48,211.48,211.48,211.48-94.87,211.48-211.48S366.61,38.52,250,38.52Z"/>
  <g>
    <path class="cls-1" d="M385.52,130.45l2.11.13v-15.96h-13.81l.09,2.3c0,4.03-2.65,7.31-5.91,7.31s-5.9-3.28-5.9-7.31c0-.12,0-.25,0-.37l.08-1.93h-9.62l.05,2.31c0,4.03-2.65,7.31-5.9,7.31-3.26,0-5.91-3.28-5.91-7.28l.1-2.34h-9.65l.05,1.91c0,.13,0,.26,0,.4,0,4.03-2.65,7.31-5.9,7.31s-5.9-3.28-5.9-7.31c0-.12,0-.24,0-.36l.09-1.94h-9.66l.07,1.92c0,.13,0,.26,0,.38,0,4.03-2.65,7.31-5.9,7.31s-5.9-3.28-5.9-7.31c0-.13,0-.26,0-.39l.06-1.92h-9.66l.09,1.94c0,.12,0,.24,0,.36,0,4.03-2.65,7.31-5.9,7.31h0c-1.51,0-2.95-.72-4.06-2.03-1.19-1.4-1.84-3.27-1.84-5.26,0-.13,0-.26,0-.39l.08-1.93h-9.67l.09,1.94c0,.12,0,.24,0,.36,0,4.03-2.65,7.31-5.9,7.31h0c-1.51,0-2.95-.72-4.06-2.03-1.19-1.4-1.84-3.27-1.84-5.33l.08-2.25h-9.67l.09,1.94c0,.12,0,.24,0,.36,0,4.03-2.65,7.31-5.9,7.31-1.51,0-2.95-.72-4.06-2.04-1.19-1.4-1.84-3.27-1.84-5.3,0-.11,0-.23,0-.34l.09-1.94h-9.67l.08,1.93c0,.13,0,.26,0,.38,0,4.03-2.65,7.31-5.9,7.31-1.51,0-2.95-.72-4.07-2.04-1.19-1.4-1.84-3.27-1.84-5.27,0-.13,0-.25,0-.38l.08-1.93h-9.69l.1,1.95c0,.11.01.22,0,.35,0,4.03-2.65,7.31-5.9,7.31-3.26,0-5.9-3.28-5.9-7.31,0-.13,0-.26,0-.39l.07-1.92h-9.65l.08,1.93c0,.12,0,.25,0,.38,0,2-.65,3.87-1.84,5.27-1.11,1.31-2.55,2.03-4.06,2.03,0,0,0,0,0,0-1.51,0-2.95-.72-4.06-2.03-1.19-1.4-1.84-3.27-1.84-5.27,0-.13,0-.25,0-.38l.08-1.93h-9.65l.07,2.3c0,4.03-2.65,7.31-5.9,7.31-3.26,0-5.91-3.28-5.91-7.32,0-.13,0-.26,0-.39l.05-1.91h-9.62l.06,1.92c0,.13,0,.26,0,.39,0,4.03-2.65,7.31-5.9,7.31h0c-1.51,0-2.95-.72-4.06-2.03-1.19-1.4-1.84-3.28-1.84-5.28,0-.13,0-.25,0-.38l.08-1.93h-15.58v15.07l2.01-.17c.13-.01.27-.02.4-.02,3.25,0,5.9,3.28,5.9,7.31s-2.65,7.31-5.9,7.31c-.13,0-.26,0-.39-.02l-2.02-.18v10.81l2.01-.17c.13-.01.27-.02.4-.02,3.25,0,5.9,3.28,5.9,7.31s-2.65,7.31-5.9,7.31c-.13,0-.27,0-.4-.02l-2.01-.17v10.8l2.01-.17c.13-.01.27-.02.4-.02,3.25,0,5.9,3.28,5.9,7.31s-2.65,7.31-5.9,7.31c-.13,0-.27,0-.4-.02l-2.01-.17v10.81l2.02-.18c.13-.01.26-.02.39-.02,3.25,0,5.9,3.28,5.9,7.31s-2.65,7.31-5.9,7.31c-.13,0-.27,0-.4-.02l-2.01-.17v10.8l2.01-.17c.13-.01.27-.02.4-.02,3.25,0,5.9,3.28,5.9,7.31s-2.65,7.31-5.9,7.31c-.13,0-.27,0-.4-.02l-2.01-.17v10.8l2.01-.17c.13-.01.27-.02.4-.02,3.25,0,5.9,3.28,5.9,7.31s-2.65,7.31-5.9,7.31c-.13,0-.26,0-.39-.02l-2.02-.18v10.81l2.01-.17c.13-.01.27-.02.4-.02,3.25,0,5.9,3.28,5.9,7.31s-2.65,7.31-5.9,7.31c-.13,0-.27,0-.4-.02l-2.01-.17v10.8l2.01-.17c.13-.01.27-.02.4-.02,3.25,0,5.9,3.28,5.9,7.31s-2.65,7.31-5.9,7.31c-.13,0-.27,0-.4-.02l-2.01-.17v10.8l2.01-.17c.13-.01.27-.02.4-.02,3.25,0,5.9,3.28,5.9,7.31s-2.65,7.31-5.9,7.31c-.13,0-.27,0-.4-.02l-2.01-.17v10.8l2.01-.17c.13-.01.27-.02.4-.02,3.25,0,5.9,3.28,5.9,7.31s-2.65,7.31-5.9,7.31c-.13,0-.27,0-.4-.02l-2.01-.17v16.02h13.82l-.08-1.94c0-.13,0-.26,0-.39,0-4.03,2.65-7.31,5.9-7.31s5.9,3.28,5.9,7.31c0,.13,0,.26-.01.39l-.08,1.94h9.68l-.08-1.94c0-.13,0-.26,0-.39,0-4.03,2.65-7.31,5.9-7.31s5.9,3.28,5.9,7.31c0,.13,0,.26-.01.39l-.08,1.94h9.68l-.08-1.94c0-.13,0-.26,0-.39,0-4.03,2.65-7.31,5.9-7.31s5.9,3.28,5.9,7.31c0,.13,0,.26-.01.39l-.08,1.94h9.68l-.08-1.94c0-.13,0-.26,0-.39,0-4.03,2.65-7.31,5.9-7.31s5.9,3.28,5.9,7.31c0,.13,0,.26-.01.39l-.08,1.94h9.68l-.08-1.94c0-.13,0-.26,0-.39,0-4.03,2.65-7.31,5.9-7.31s5.9,3.28,5.9,7.31c0,.13,0,.26-.01.39l-.08,1.94h9.68l-.08-1.94c0-.13,0-.26,0-.39,0-4.03,2.65-7.31,5.9-7.31s5.9,3.28,5.9,7.31c0,.13,0,.26-.01.39l-.08,1.94h9.68l-.08-1.94c0-.13,0-.26,0-.39,0-4.03,2.65-7.31,5.9-7.31s5.9,3.28,5.9,7.31c0,.13,0,.27-.01.4l-.07,1.93h9.67l-.08-1.94c0-.13,0-.26,0-.39,0-4.03,2.65-7.31,5.9-7.31s5.9,3.28,5.9,7.31c0,.13,0,.26-.01.39l-.08,1.94h9.68l-.08-1.94c0-.13,0-.26,0-.39,0-4.03,2.65-7.31,5.9-7.31s5.9,3.28,5.9,7.31c0,.13,0,.27-.01.4l-.07,1.93h9.67l-.08-1.94c0-.13,0-.26,0-.39,0-4.03,2.65-7.31,5.9-7.31s5.9,3.28,5.9,7.31c0,.13,0,.26-.01.39l-.08,1.94h9.68l-.08-1.94c0-.13,0-.26,0-.39,0-4.03,2.65-7.31,5.9-7.31s5.9,3.28,5.9,7.31c0,.13,0,.26-.01.39l-.08,1.94h9.68l-.08-1.94c0-.13,0-.26,0-.39,0-4.03,2.65-7.31,5.9-7.31s5.9,3.28,5.9,7.31c0,.13,0,.27-.01.4l-.07,1.93h15.58v-15l-1.96.11c-.07,0-.18.05-.22,0-1.51,0-2.95-.72-4.06-2.04-1.18-1.4-1.84-3.28-1.84-5.28s.65-3.88,1.84-5.28c1.11-1.31,2.55-2.04,4.06-2.04h0c.07,0,.13,0,.2,0l1.97.13v-8.71l-.05-1.94-2.13.1c-1.51,0-2.95-.72-4.06-2.04-1.19-1.4-1.84-3.27-1.84-5.27,0-4.03,2.65-7.31,5.93-7.31l2.15.13v-8.71l-.07-1.95-2.1.1c-3.25,0-5.9-3.28-5.9-7.31s2.65-7.31,5.9-7.31c.08,0,.16,0,.24,0l1.94.09v-8.67l-.07-1.95-2.1.1c-3.26,0-5.9-3.28-5.9-7.31s2.65-7.31,5.94-7.31c.06,0,.12,0,.18,0l1.96.11v-8.69l-.05-1.94-2.13.1c-1.51,0-2.96-.72-4.07-2.04-1.19-1.4-1.84-3.27-1.84-5.28s.65-3.87,1.84-5.28c1.11-1.31,2.55-2.04,4.06-2.04h0c.07,0,.13,0,.2,0l1.98.13v-10.66l-2.18.1c-1.51,0-2.95-.72-4.06-2.04-1.19-1.4-1.84-3.27-1.84-5.28s.65-3.88,1.84-5.28c1.11-1.31,2.55-2.04,4.12-2.04h0l2.12.11v-10.61l-2.18.08c-3.26,0-5.9-3.28-5.91-7.31,0-4.03,2.65-7.31,5.94-7.31.07,0,.12,0,.18,0l1.96.11v-8.69l-.07-1.94-2.1.1c-3.26,0-5.91-3.28-5.91-7.31,0-4.03,2.65-7.31,5.91-7.31.07,0,.14,0,.22,0l1.96.11v-10.63l-2.18.1c-1.51,0-2.95-.72-4.06-2.04-1.19-1.4-1.84-3.27-1.84-5.27,0-4.03,2.65-7.31,5.95-7.31.06,0,.11,0,.17,0l1.96.11v-10.61l-2.18.08c-3.26,0-5.9-3.28-5.91-7.31,0-4.03,2.65-7.31,5.97-7.31ZM383.92,148.65v3.28c-4.58.85-8.08,5.4-8.08,10.88,0,2.88.96,5.6,2.72,7.67,1.47,1.73,3.33,2.84,5.36,3.21v3.28c-4.58.85-8.08,5.4-8.08,10.88,0,5.47,3.49,10.02,8.08,10.88v3.29c-4.57.85-8.08,5.4-8.08,10.88,0,5.48,3.51,10.04,8.08,10.89v3.28c-2.03.37-3.9,1.48-5.36,3.21-1.75,2.07-2.72,4.8-2.72,7.68,0,2.88.96,5.6,2.72,7.67,1.47,1.73,3.33,2.84,5.36,3.21v3.28c-2.03.37-3.9,1.48-5.36,3.21-1.75,2.07-2.72,4.8-2.72,7.68,0,2.88.96,5.6,2.72,7.67,1.47,1.73,3.33,2.84,5.36,3.21v3.28c-4.58.85-8.08,5.4-8.08,10.88s3.5,10.04,8.08,10.88v3.28c-4.58.85-8.08,5.4-8.08,10.88s3.5,10.04,8.08,10.88v3.28c-4.58.85-8.08,5.41-8.08,10.89,0,2.88.96,5.6,2.72,7.67,1.47,1.73,3.33,2.84,5.36,3.21v3.28c-2.03.37-3.9,1.48-5.36,3.21-1.75,2.07-2.72,4.8-2.72,7.68s.96,5.6,2.72,7.67c1.46,1.73,3.33,2.84,5.36,3.21v7.6h-8.14c-.6-5.43-4.65-9.64-9.54-9.64s-8.94,4.21-9.54,9.64h-2.22c-.6-5.43-4.65-9.64-9.54-9.64s-8.94,4.21-9.54,9.64h-2.22c-.6-5.43-4.65-9.64-9.54-9.64s-8.94,4.21-9.54,9.64h-2.22c-.6-5.43-4.65-9.64-9.54-9.64s-8.94,4.21-9.54,9.64h-2.22c-.6-5.43-4.65-9.64-9.54-9.64s-8.94,4.21-9.54,9.64h-2.22c-.6-5.43-4.65-9.64-9.54-9.64s-8.94,4.21-9.54,9.64h-2.22c-.6-5.43-4.65-9.64-9.54-9.64s-8.94,4.21-9.54,9.64h-2.22c-.6-5.43-4.65-9.64-9.54-9.64s-8.94,4.21-9.54,9.64h-2.22c-.6-5.43-4.65-9.64-9.54-9.64s-8.94,4.21-9.54,9.64h-2.22c-.6-5.43-4.65-9.64-9.54-9.64s-8.94,4.21-9.54,9.64h-2.22c-.6-5.43-4.65-9.64-9.54-9.64s-8.94,4.21-9.54,9.64h-2.22c-.6-5.43-4.65-9.64-9.54-9.64s-8.94,4.21-9.54,9.64h-6.37v-8.51c4.69-.73,8.32-5.35,8.32-10.93s-3.63-10.19-8.32-10.92v-3.2c4.69-.73,8.32-5.35,8.32-10.93s-3.63-10.19-8.32-10.92v-3.2c4.69-.73,8.32-5.35,8.32-10.93s-3.63-10.19-8.32-10.92v-3.2c4.69-.73,8.32-5.35,8.32-10.93s-3.63-10.19-8.32-10.92v-3.2c4.69-.73,8.32-5.35,8.32-10.93s-3.63-10.19-8.32-10.92v-3.2c4.69-.73,8.32-5.35,8.32-10.93s-3.63-10.19-8.32-10.92v-3.2c4.69-.73,8.32-5.35,8.32-10.93s-3.63-10.19-8.32-10.92v-3.2c4.69-.73,8.32-5.35,8.32-10.93s-3.63-10.19-8.32-10.92v-3.2c4.69-.73,8.32-5.35,8.32-10.93s-3.63-10.19-8.32-10.92v-3.2c4.69-.73,8.32-5.35,8.32-10.93s-3.63-10.19-8.32-10.92v-7.56h8.15c.26,2.35,1.18,4.54,2.64,6.27,1.83,2.16,4.28,3.35,6.89,3.35h0c4.89,0,8.93-4.2,9.54-9.62h2.22c.6,5.41,4.65,9.61,9.54,9.62,4.87,0,8.91-4.18,9.53-9.62h2.22c.26,2.35,1.18,4.54,2.64,6.27,1.83,2.16,4.27,3.35,6.89,3.35h.02c2.62,0,5.07-1.19,6.89-3.35,1.46-1.73,2.38-3.92,2.64-6.27h2.22c.6,5.41,4.65,9.61,9.54,9.62,4.89,0,8.94-4.21,9.54-9.62h2.22c.26,2.35,1.18,4.54,2.64,6.27,1.83,2.16,4.28,3.35,6.9,3.35,4.88,0,8.93-4.2,9.53-9.62h2.22c.26,2.35,1.18,4.54,2.64,6.27,1.83,2.16,4.28,3.35,6.9,3.35,4.89,0,8.93-4.2,9.54-9.62h2.22c.26,2.35,1.18,4.54,2.64,6.27,1.83,2.16,4.28,3.35,6.9,3.35h0c4.88,0,8.93-4.2,9.53-9.61h2.22c.26,2.35,1.18,4.54,2.64,6.27,1.83,2.16,4.28,3.35,6.9,3.35h0c4.88,0,8.93-4.2,9.53-9.61h2.22c.6,5.42,4.65,9.62,9.54,9.62s8.93-4.2,9.53-9.62h2.22c.6,5.42,4.65,9.62,9.54,9.62s8.93-4.2,9.54-9.62h2.22c.61,5.41,4.65,9.61,9.54,9.62,4.88,0,8.93-4.2,9.53-9.62h2.22c.6,5.42,4.65,9.62,9.54,9.62s8.91-4.18,9.53-9.62h6.38v8.55c-4.57.85-8.08,5.4-8.08,10.88,0,5.48,3.51,10.04,8.08,10.88Z"/>
    <path class="cls-1" d="M173.14,200.83c-1.24.46-2.67.68-4.29.68-1.83,0-3.47-.3-4.93-.9-1.46-.6-2.54-1.39-3.23-2.36-.69-.97-1.14-2.22-1.32-3.73l-4.01.33c.06,2.03.65,3.85,1.76,5.45,1.12,1.61,2.66,2.81,4.62,3.61,1.96.8,4.4,1.2,7.3,1.2,2.29,0,4.35-.4,6.19-1.19,1.83-.79,3.24-1.9,4.22-3.33.98-1.43,1.47-2.95,1.47-4.56s-.45-3.07-1.34-4.31c-.89-1.25-2.27-2.28-4.14-3.09-1.28-.55-3.65-1.2-7.11-1.94-3.45-.74-5.59-1.46-6.41-2.16-.83-.7-1.25-1.6-1.25-2.69,0-1.26.59-2.33,1.76-3.22,1.18-.89,3.05-1.33,5.62-1.33s4.33.49,5.6,1.47c1.26.98,2,2.43,2.22,4.35l4.07-.29c-.07-1.78-.6-3.37-1.58-4.78-.98-1.41-2.38-2.47-4.19-3.2-1.82-.72-3.92-1.09-6.3-1.09-2.16,0-4.12.34-5.89,1.03-1.77.69-3.11,1.7-4.03,3.03-.92,1.33-1.38,2.76-1.38,4.29,0,1.39.38,2.65,1.13,3.78.75,1.12,1.89,2.07,3.43,2.82,1.18.59,3.25,1.22,6.2,1.89,2.95.67,4.85,1.16,5.72,1.48,1.34.48,2.31,1.08,2.89,1.79.58.71.88,1.54.88,2.49s-.3,1.8-.91,2.6c-.61.79-1.53,1.42-2.77,1.87Z"/>
    <polygon class="cls-1" points="210.14 177.84 210.14 174.26 186.93 174.26 186.93 204.6 210.88 204.6 210.88 201.02 191.17 201.02 191.17 190.69 208.94 190.69 208.94 187.14 191.17 187.14 191.17 177.84 210.14 177.84"/>
    <polygon class="cls-1" points="216.7 174.26 216.7 204.6 236.76 204.6 236.76 201.02 220.95 201.02 220.95 174.26 216.7 174.26"/>
    <path class="cls-1" d="M247.89,203.05c2.38,1.38,5.08,2.07,8.1,2.07,2.79,0,5.39-.62,7.8-1.87,2.41-1.25,4.27-3.09,5.58-5.51,1.31-2.43,1.97-5.18,1.97-8.26s-.62-5.75-1.87-8.14c-1.25-2.39-3.06-4.26-5.44-5.6-2.38-1.34-5.05-2.01-8.02-2.01-4.53,0-8.22,1.42-11.08,4.27-2.86,2.85-4.29,6.79-4.29,11.83,0,2.66.61,5.19,1.84,7.57,1.23,2.39,3.03,4.27,5.41,5.65ZM248.28,180.11c2.17-1.95,4.76-2.93,7.76-2.93,2.12,0,4.03.51,5.73,1.52,1.7,1.01,2.99,2.44,3.88,4.28.88,1.84,1.32,4,1.32,6.47,0,3.9-1.03,6.92-3.1,9.04-2.07,2.12-4.7,3.19-7.9,3.19s-5.75-1.05-7.83-3.16c-2.08-2.1-3.12-4.98-3.12-8.64,0-4.57,1.08-7.83,3.25-9.78Z"/>
    <path class="cls-1" d="M308.07,202.56c1.06-.67,2.03-1.59,2.92-2.75.89-1.17,1.62-2.64,2.19-4.42.57-1.78.85-3.82.85-6.12,0-2.7-.42-5.11-1.26-7.21-.84-2.1-2.11-3.83-3.8-5.18-1.3-1.05-2.87-1.77-4.71-2.17-1.31-.29-3.22-.43-5.72-.43h-11.06v30.34h11.59c1.94,0,3.66-.17,5.16-.52,1.5-.34,2.77-.85,3.83-1.52ZM298.6,201.02h-6.86v-23.18h6.75c2.53,0,4.36.21,5.5.62,1.58.58,2.92,1.72,4.02,3.42,1.1,1.7,1.65,4.14,1.65,7.31,0,2.29-.28,4.24-.84,5.85-.56,1.61-1.35,2.89-2.35,3.84-.72.68-1.68,1.2-2.88,1.57-1.2.37-2.87.56-4.98.56Z"/>
    <polygon class="cls-1" points="343.3 177.84 343.3 174.26 320.09 174.26 320.09 204.6 344.05 204.6 344.05 201.02 324.34 201.02 324.34 190.69 342.1 190.69 342.1 187.14 324.34 187.14 324.34 177.84 343.3 177.84"/>
    <path class="cls-1" d="M171.71,215.89h-12.63v29.76h4.43v-12.1h8.59c4.74,0,8.01-.88,9.82-2.63,1.81-1.75,2.72-3.89,2.72-6.43,0-1.47-.34-2.83-1.02-4.06-.68-1.23-1.57-2.19-2.68-2.87-1.11-.68-2.49-1.15-4.14-1.39-1.17-.19-2.87-.28-5.09-.28ZM179.01,221.42c.71.89,1.06,1.95,1.06,3.2,0,1.72-.6,3.05-1.81,4-1.2.95-3.24,1.42-6.1,1.42h-8.66v-10.64h8.57c2.01,0,3.39.09,4.14.26,1.16.28,2.09.87,2.8,1.76Z"/>
    <path class="cls-1" d="M215.67,240.21c.76-1.76,1.14-4.13,1.14-7.13v-17.19h-4.43v17.17c0,3.74-.69,6.26-2.08,7.57-1.39,1.31-3.71,1.97-6.97,1.97-1.9,0-3.51-.33-4.83-.99-1.32-.66-2.25-1.61-2.79-2.83-.54-1.22-.81-3.13-.81-5.71v-17.17h-4.43v17.19c0,3.15.43,5.64,1.28,7.46.85,1.82,2.28,3.21,4.27,4.17,2,.96,4.56,1.44,7.7,1.44s5.84-.55,7.83-1.65c1.99-1.1,3.36-2.53,4.12-4.29Z"/>
    <path class="cls-1" d="M222.04,215.89v29.76h4.43v-13.22h5.14c1.14,0,1.97.05,2.47.14.69.15,1.36.41,2.02.79.66.38,1.41,1.04,2.25,1.99.84.95,1.9,2.31,3.2,4.1l4.43,6.19h5.57l-5.83-8.1c-1.16-1.58-2.38-2.9-3.68-3.96-.61-.49-1.5-.98-2.67-1.48,3.21-.39,5.59-1.31,7.13-2.76,1.54-1.45,2.31-3.23,2.31-5.34,0-1.64-.46-3.13-1.39-4.49-.93-1.35-2.17-2.3-3.72-2.83-1.55-.53-3.82-.8-6.81-.8h-14.85ZM242.52,220.54c1.15.91,1.72,2.06,1.72,3.47,0,.96-.3,1.85-.89,2.67-.59.82-1.46,1.41-2.6,1.79-1.14.37-2.73.56-4.75.56h-9.53v-9.85h10.6c2.48,0,4.3.45,5.45,1.36Z"/>
    <path class="cls-1" d="M300.69,245.65h.21v-.52l3.47-8.5h14.01l3.91,9.01h5.05l-13.71-29.76h-4.78l-11.35,26.25h-17.98l2.03-2.09,18.8-20.65v-3.51h-23.99v3.51h18.69c-1.1,1-2.25,2.18-3.47,3.53l-17.16,19.06v.14h-18v-10.13h18.53v-3.49h-18.53v-9.12h19.79v-3.51h-24.22v29.76h48.7ZM309.33,224.7c.78-1.88,1.38-3.78,1.81-5.68.52,1.61,1.31,3.67,2.38,6.17l3.5,8.24h-11.36l3.68-8.73Z"/>
    <polygon class="cls-1" points="205 252.13 188.51 252.13 138.51 317.37 155.53 317.37 191.85 270.49 191.85 288.33 184.32 288.33 176.35 298.43 191.41 298.43 191.41 317.37 205 317.37 205 252.13"/>
    <path class="cls-1" d="M256.36,282.04c14.85-5.68,13-29.54-8.32-29.81h-37.36v65.14h36.72c25.04-.9,24.27-31.97,8.96-35.33ZM243.53,303.92h-18.41v-38.69h17.02c10.59.73,10.64,12.81.15,12.7h-12.2v10.72h13.5c12.32.08,11.58,15.22-.06,15.27Z"/>
    <rect class="cls-2" x="272.91" y="252.55" width="12.91" height="65.16"/>
    <path class="cls-1" d="M309.38,294.86c5.67,8.82,17.92,11.66,27.27,6.32,5.1-2.92,8.31-7.69,9.26-12.85h-39.11c.4,2.25,1.25,4.47,2.58,6.53Z"/>
    <path class="cls-1" d="M343.34,275.46c-5.66-8.82-17.91-11.66-27.26-6.32-5.11,2.92-8.32,7.68-9.26,12.85h39.11c-.41-2.25-1.25-4.47-2.58-6.53Z"/>
    <path class="cls-1" d="M346.95,297.3c-1.92,2.63-4.47,4.93-7.6,6.67-11.55,6.45-26.67,3.02-33.66-7.62-6.99-10.64-3.28-24.58,8.26-31.03,11.3-6.31,26.02-3.17,33.2,6.95h12.76c-.71-1.62-1.57-3.21-2.58-4.76-10.24-15.58-32.37-20.59-49.28-11.15-16.9,9.44-22.33,29.84-12.1,45.43,10.24,15.58,32.37,20.59,49.28,11.15,6.78-3.79,11.71-9.34,14.53-15.64h-12.82Z"/>
    <path class="cls-1" d="M135.43,323.51l-3.04,8.15h1.67l.65-1.85h3.12l.68,1.85h1.72l-3.13-8.15h-1.67ZM135.19,328.44l1.06-3.03,1.08,3.03h-2.13Z"/>
    <path class="cls-1" d="M143.94,330.42c-.48,0-.86-.13-1.14-.38s-.47-.65-.56-1.18l-1.54.16c.1.91.42,1.61.95,2.08.53.48,1.29.71,2.28.71.68,0,1.25-.1,1.7-.3.46-.2.81-.5,1.06-.91.25-.41.37-.85.37-1.31,0-.52-.1-.95-.31-1.3-.21-.35-.5-.63-.86-.83-.37-.2-.94-.4-1.7-.59-.77-.19-1.25-.37-1.45-.55-.16-.14-.24-.3-.24-.49,0-.21.08-.38.25-.51.26-.2.62-.29,1.08-.29s.78.09,1,.28c.22.18.37.49.43.9l1.58-.07c-.02-.75-.29-1.35-.78-1.8-.5-.45-1.23-.67-2.22-.67-.6,0-1.11.09-1.54.28-.42.19-.75.46-.98.83-.23.36-.34.75-.34,1.16,0,.65.24,1.19.72,1.64.34.32.93.59,1.78.81.66.17,1.08.29,1.26.36.27.1.46.22.57.35.11.14.16.3.16.49,0,.3-.13.56-.39.79-.26.22-.64.34-1.15.34Z"/>
    <path class="cls-1" d="M151.25,330.42c-.48,0-.86-.13-1.14-.38s-.47-.65-.56-1.18l-1.54.16c.1.91.42,1.61.95,2.08.53.48,1.29.71,2.28.71.68,0,1.25-.1,1.7-.3.46-.2.81-.5,1.06-.91s.37-.85.37-1.31c0-.52-.1-.95-.31-1.3-.21-.35-.5-.63-.86-.83-.37-.2-.94-.4-1.7-.59-.77-.19-1.25-.37-1.45-.55-.16-.14-.23-.3-.23-.49,0-.21.08-.38.25-.51.26-.2.62-.29,1.08-.29s.78.09,1,.28c.22.18.37.49.43.9l1.58-.07c-.02-.75-.29-1.35-.78-1.8-.5-.45-1.23-.67-2.22-.67-.6,0-1.11.09-1.54.28-.42.19-.75.46-.98.83s-.34.75-.34,1.16c0,.65.24,1.19.72,1.64.34.32.93.59,1.78.81.66.17,1.08.29,1.26.36.27.1.46.22.57.35.11.14.16.3.16.49,0,.3-.13.56-.39.79-.26.22-.64.34-1.15.34Z"/>
    <path class="cls-1" d="M157.5,323.7c-.37.16-.7.4-1.01.73-.31.33-.55.7-.73,1.12-.24.56-.36,1.26-.36,2.09,0,1.3.34,2.32,1.03,3.06.69.74,1.61,1.11,2.77,1.11s2.07-.37,2.75-1.12c.69-.74,1.03-1.77,1.03-3.09s-.35-2.36-1.04-3.11c-.69-.75-1.61-1.12-2.76-1.12-.64,0-1.2.11-1.68.32ZM160.77,325.47c.39.46.59,1.16.59,2.09s-.2,1.65-.61,2.13-.92.71-1.55.71-1.15-.24-1.56-.71c-.41-.48-.61-1.18-.61-2.1s.2-1.64.6-2.11c.4-.47.92-.7,1.57-.7s1.17.23,1.56.69Z"/>
    <path class="cls-1" d="M167.55,324.78c.42,0,.78.12,1.07.37.29.24.49.58.58,1l1.56-.39c-.18-.65-.44-1.15-.8-1.5-.6-.59-1.37-.88-2.33-.88-1.09,0-1.98.38-2.65,1.13-.67.75-1.01,1.8-1.01,3.16,0,1.28.33,2.29,1,3.03.67.74,1.52,1.11,2.56,1.11.84,0,1.53-.22,2.08-.65.55-.43.94-1.09,1.17-1.98l-1.53-.51c-.13.6-.35,1.03-.65,1.31-.3.28-.66.42-1.08.42-.57,0-1.03-.22-1.39-.66-.36-.44-.53-1.17-.53-2.2,0-.97.18-1.67.54-2.11.36-.43.83-.65,1.41-.65Z"/>
    <rect class="cls-2" x="172.12" y="323.51" width="1.58" height="8.15"/>
    <path class="cls-1" d="M174.44,331.67h1.67l.65-1.85h3.12l.68,1.85h1.72l-3.13-8.15h-1.67l-3.04,8.15ZM179.38,328.44h-2.13l1.06-3.03,1.08,3.03Z"/>
    <path class="cls-1" d="M189.68,329.18l-1.53-.51c-.13.6-.35,1.03-.65,1.31-.3.28-.66.42-1.08.42-.57,0-1.03-.22-1.39-.66-.36-.44-.53-1.17-.53-2.2,0-.97.18-1.67.54-2.11.36-.43.83-.65,1.41-.65.42,0,.78.12,1.07.37.29.24.49.58.58,1l1.56-.39c-.18-.65-.44-1.15-.8-1.5-.6-.59-1.37-.88-2.33-.88-1.09,0-1.98.38-2.65,1.13-.67.75-1.01,1.8-1.01,3.16,0,1.28.33,2.29,1,3.03.57.63,1.28.98,2.12,1.07-.18.02-.35.06-.51.12l-.14.55c.24-.07.47-.11.7-.11s.4.05.51.14c.11.09.17.2.17.33,0,.14-.06.26-.18.34-.15.12-.39.18-.7.18s-.64-.02-1.01-.06v.66c.23.06.58.09,1.04.09.64,0,1.14-.14,1.48-.42.26-.2.38-.47.38-.79,0-.29-.12-.54-.35-.75-.16-.14-.38-.21-.63-.26.69-.05,1.28-.25,1.75-.63.55-.43.94-1.09,1.17-1.98Z"/>
    <path class="cls-1" d="M193.01,322.69c.06-.07.15-.11.27-.11.15,0,.39.07.71.19.33.13.53.21.61.23.12.03.24.04.36.04.28,0,.5-.11.68-.32.18-.21.27-.57.27-1.07h-.69c-.02.17-.07.3-.15.37-.08.07-.17.11-.29.11-.16,0-.38-.07-.66-.2-.28-.13-.48-.21-.58-.24-.11-.03-.22-.04-.35-.04-.28,0-.52.1-.7.31-.18.21-.27.51-.27.9,0,.05,0,.12,0,.2h.68c0-.18.04-.3.1-.38Z"/>
    <path class="cls-1" d="M191.95,331.67l.65-1.85h3.12l.68,1.85h1.72l-3.13-8.15h-1.67l-3.04,8.15h1.67ZM194.13,325.42l1.08,3.03h-2.13l1.06-3.03Z"/>
    <path class="cls-1" d="M202.47,331.81c1.15,0,2.07-.37,2.75-1.12.69-.74,1.03-1.77,1.03-3.09s-.35-2.36-1.04-3.11c-.69-.75-1.61-1.12-2.76-1.12-.64,0-1.2.11-1.68.32-.37.16-.7.4-1.01.73-.31.33-.55.7-.73,1.12-.24.56-.36,1.26-.36,2.09,0,1.3.34,2.32,1.03,3.06.69.74,1.61,1.11,2.77,1.11ZM200.89,325.48c.4-.47.92-.7,1.57-.7s1.17.23,1.56.69c.39.46.59,1.16.59,2.09s-.2,1.65-.61,2.13c-.4.47-.92.71-1.55.71s-1.15-.24-1.56-.71c-.41-.48-.61-1.18-.61-2.1s.2-1.64.6-2.11Z"/>
    <path class="cls-1" d="M215.08,331.61c.42-.05.77-.18,1.06-.39.29-.21.51-.49.68-.84.17-.35.25-.71.25-1.08,0-.47-.13-.88-.38-1.23-.26-.35-.62-.6-1.1-.74.34-.16.61-.4.8-.72.2-.32.3-.67.3-1.05,0-.35-.08-.67-.24-.95-.16-.28-.36-.51-.6-.68-.24-.17-.51-.28-.82-.34-.3-.05-.77-.08-1.38-.08h-3.12v8.15h2.66c1.01,0,1.64-.03,1.9-.06ZM212.1,324.87h.91c.74,0,1.19,0,1.35.03.26.03.46.13.59.29.13.16.2.36.2.61s-.08.48-.23.64c-.15.16-.37.26-.64.29-.15.02-.53.03-1.15.03h-1.03v-1.89ZM212.1,328.11h1.27c.72,0,1.18.04,1.4.12.22.08.38.2.49.37.11.17.17.38.17.62,0,.29-.07.52-.22.69-.15.17-.34.28-.57.33-.15.03-.51.05-1.08.05h-1.46v-2.18Z"/>
    <path class="cls-1" d="M224.83,325.8c0-.48-.11-.91-.34-1.28-.23-.37-.53-.63-.91-.78-.38-.15-.99-.22-1.82-.22h-3.32v8.15h1.58v-3.4h.32c.36,0,.63.03.79.09.17.06.33.17.47.34.15.16.43.56.83,1.2l1.14,1.77h1.89l-.95-1.59c-.38-.63-.68-1.08-.9-1.32-.22-.25-.5-.48-.85-.68.69-.1,1.2-.36,1.55-.75.34-.4.52-.9.52-1.52ZM223.04,326.52c-.11.16-.25.28-.44.34-.19.07-.66.1-1.42.1h-1.17v-2.07h1.23c.64,0,1.02,0,1.15.03.26.04.45.15.59.32.14.17.21.39.21.66,0,.24-.05.45-.16.61Z"/>
    <path class="cls-1" d="M225.55,331.67h1.67l.65-1.85h3.12l.68,1.85h1.72l-3.13-8.15h-1.67l-3.04,8.15ZM230.49,328.44h-2.13l1.06-3.03,1.08,3.03Z"/>
    <path class="cls-1" d="M237.11,330.42c-.48,0-.86-.13-1.14-.38s-.47-.65-.56-1.18l-1.54.16c.1.91.42,1.61.95,2.08.53.48,1.29.71,2.28.71.68,0,1.25-.1,1.7-.3.46-.2.81-.5,1.06-.91s.37-.85.37-1.31c0-.52-.1-.95-.31-1.3-.21-.35-.5-.63-.86-.83-.37-.2-.94-.4-1.7-.59-.77-.19-1.25-.37-1.45-.55-.16-.14-.24-.3-.24-.49,0-.21.08-.38.25-.51.26-.2.62-.29,1.08-.29s.78.09,1,.28c.22.18.37.49.43.9l1.58-.07c-.02-.75-.29-1.35-.78-1.8-.5-.45-1.23-.67-2.22-.67-.6,0-1.11.09-1.54.28-.42.19-.75.46-.98.83-.23.36-.34.75-.34,1.16,0,.65.24,1.19.72,1.64.34.32.93.59,1.78.81.66.17,1.08.29,1.26.36.27.1.46.22.57.35.11.14.16.3.16.49,0,.3-.13.56-.39.79-.26.22-.64.34-1.15.34Z"/>
    <rect class="cls-2" x="241.53" y="323.51" width="1.58" height="8.15"/>
    <polygon class="cls-1" points="244.69 323.58 244.69 331.67 250.19 331.67 250.19 330.29 246.26 330.29 246.26 323.58 244.69 323.58"/>
    <polygon class="cls-1" points="257.14 324.89 257.14 323.51 251.35 323.51 251.35 331.67 257.29 331.67 257.29 330.29 252.92 330.29 252.92 328.08 256.85 328.08 256.85 326.7 252.92 326.7 252.92 324.89 257.14 324.89"/>
    <rect class="cls-2" x="258.61" y="323.51" width="1.58" height="8.15"/>
    <path class="cls-1" d="M263.31,328.26h.32c.36,0,.63.03.79.09.17.06.33.17.47.34.15.16.43.56.83,1.2l1.14,1.77h1.89l-.95-1.59c-.38-.63-.68-1.08-.9-1.32-.22-.25-.5-.48-.85-.68.69-.1,1.2-.36,1.55-.75.34-.4.52-.9.52-1.52,0-.48-.11-.91-.34-1.28-.23-.37-.53-.63-.91-.78-.38-.15-.99-.22-1.82-.22h-3.32v8.15h1.58v-3.4ZM263.31,324.89h1.23c.64,0,1.02,0,1.15.03.26.04.45.15.59.32.14.17.21.39.21.66,0,.24-.05.45-.16.61-.11.16-.25.28-.44.34-.19.07-.66.1-1.42.1h-1.17v-2.07Z"/>
    <path class="cls-1" d="M268.85,331.67h1.67l.65-1.85h3.12l.68,1.85h1.72l-3.13-8.15h-1.67l-3.04,8.15ZM273.78,328.44h-2.13l1.06-3.03,1.08,3.03Z"/>
    <path class="cls-1" d="M284.52,331.5c.47-.16.84-.37,1.11-.65.36-.37.64-.85.84-1.44.16-.49.24-1.06.24-1.74,0-.76-.08-1.41-.26-1.93-.17-.52-.42-.96-.75-1.32-.33-.36-.72-.61-1.18-.75-.34-.1-.84-.16-1.49-.16h-2.88v8.15h2.97c.58,0,1.05-.06,1.4-.17ZM281.73,330.29v-5.4h.71c.64,0,1.08.03,1.3.08.3.07.54.19.73.38.19.19.34.45.45.79.11.34.16.82.16,1.45s-.05,1.13-.16,1.49c-.11.37-.24.63-.41.79-.17.16-.38.27-.64.34-.19.05-.51.08-.95.08h-1.18Z"/>
    <path class="cls-1" d="M289.6,329.82h3.12l.68,1.85h1.72l-3.13-8.15h-1.67l-3.04,8.15h1.67l.65-1.85ZM291.14,325.42l1.08,3.03h-2.13l1.06-3.03Z"/>
    <rect class="cls-2" x="298.54" y="323.51" width="1.58" height="8.15"/>
    <polygon class="cls-1" points="303.2 323.51 301.67 323.51 301.67 331.67 303.14 331.67 303.14 326.35 306.29 331.67 307.87 331.67 307.87 323.51 306.4 323.51 306.4 328.96 303.2 323.51"/>
    <path class="cls-1" d="M313.94,323.67c-.34-.1-.84-.16-1.49-.16h-2.88v8.15h2.97c.58,0,1.05-.06,1.4-.17.47-.16.84-.37,1.11-.65.36-.37.64-.85.84-1.44.16-.49.24-1.06.24-1.74,0-.76-.08-1.41-.26-1.93-.17-.52-.42-.96-.75-1.32-.33-.36-.72-.61-1.18-.75ZM314.33,329.09c-.11.37-.24.63-.41.79-.17.16-.38.27-.64.34-.2.05-.51.08-.95.08h-1.18v-5.4h.71c.64,0,1.08.03,1.3.08.3.07.54.19.73.38s.34.45.45.79c.11.34.16.82.16,1.45s-.05,1.13-.16,1.49Z"/>
    <rect class="cls-2" x="317.48" y="330.11" width="1.5" height="1.56"/>
    <path class="cls-1" d="M327.92,323.67c-.34-.1-.84-.16-1.49-.16h-2.88v8.15h2.97c.58,0,1.05-.06,1.4-.17.47-.16.84-.37,1.11-.65.36-.37.64-.85.84-1.44.16-.49.24-1.06.24-1.74,0-.76-.08-1.41-.26-1.93-.17-.52-.42-.96-.75-1.32-.33-.36-.72-.61-1.18-.75ZM328.31,329.09c-.11.37-.24.63-.41.79-.17.16-.38.27-.64.34-.2.05-.51.08-.95.08h-1.18v-5.4h.71c.64,0,1.08.03,1.3.08.3.07.54.19.73.38s.34.45.45.79c.11.34.16.82.16,1.45s-.05,1.13-.16,1.49Z"/>
    <polygon class="cls-1" points="337.27 324.89 337.27 323.51 331.47 323.51 331.47 331.67 337.42 331.67 337.42 330.29 333.05 330.29 333.05 328.08 336.97 328.08 336.97 326.7 333.05 326.7 333.05 324.89 337.27 324.89"/>
    <path class="cls-1" d="M345.09,324.78c.42,0,.78.12,1.07.37.29.24.49.58.58,1l1.56-.39c-.18-.65-.44-1.15-.8-1.5-.6-.59-1.37-.88-2.33-.88-1.09,0-1.98.38-2.65,1.13-.67.75-1.01,1.8-1.01,3.16,0,1.28.33,2.29,1,3.03.67.74,1.52,1.11,2.56,1.11.84,0,1.53-.22,2.08-.65.55-.43.94-1.09,1.17-1.98l-1.53-.51c-.13.6-.35,1.03-.65,1.31-.3.28-.66.42-1.08.42-.57,0-1.03-.22-1.39-.66-.36-.44-.53-1.17-.53-2.2,0-.97.18-1.67.54-2.11.36-.43.83-.65,1.41-.65Z"/>
    <path class="cls-1" d="M348.91,331.67h1.67l.65-1.85h3.12l.68,1.85h1.72l-3.13-8.15h-1.67l-3.04,8.15ZM353.85,328.44h-2.13l1.06-3.03,1.08,3.03Z"/>
    <polygon class="cls-1" points="362.99 324.89 362.99 323.51 357.63 323.51 357.63 331.67 359.21 331.67 359.21 328.2 362.48 328.2 362.48 326.82 359.21 326.82 359.21 324.89 362.99 324.89"/>
    <polygon class="cls-1" points="366.33 323.05 367.28 323.05 368.74 321.38 367.07 321.38 366.33 323.05"/>
    <polygon class="cls-1" points="365.9 328.08 369.83 328.08 369.83 326.7 365.9 326.7 365.9 324.89 370.12 324.89 370.12 323.51 364.32 323.51 364.32 331.67 370.27 331.67 370.27 330.29 365.9 330.29 365.9 328.08"/>
    <rect class="cls-2" x="131.45" y="349.84" width="237.08" height="4.6"/>
    <rect class="cls-2" x="131.42" y="146.41" width="237.08" height="4.6"/>
  </g>
</svg>