<?xml version="1.0" encoding="UTF-8"?>
<svg id="Camada_1" data-name="Camada 1" xmlns="http://www.w3.org/2000/svg" viewBox="0 0 500 500">
  <defs>
    <style>
      .cls-1 {
        fill-rule: evenodd;
      }

      .cls-1, .cls-2 {
        fill: #2B674B;
      }
    </style>
  </defs>
  <path class="cls-2" d="M250,476.48c-60.5,0-117.37-23.56-160.15-66.33-42.78-42.78-66.33-99.65-66.33-160.15s23.56-117.37,66.33-160.15S189.5,23.52,250,23.52s117.37,23.56,160.15,66.33c42.78,42.78,66.33,99.65,66.33,160.15s-23.56,117.37-66.33,160.15c-42.78,42.78-99.65,66.33-160.15,66.33ZM250,38.52c-116.61,0-211.48,94.87-211.48,211.48s94.87,211.48,211.48,211.48,211.48-94.87,211.48-211.48S366.61,38.52,250,38.52Z"/>
  <g>
    <g>
      <path class="cls-1" d="M273.51,205.39c24.15,0,46.2,8.95,63.04,23.7l-12.33,11.04c-13.75-11.45-31.42-18.34-50.71-18.34-43.79,0-79.29,35.5-79.29,79.3s35.5,79.3,79.29,79.3,79.3-35.5,79.3-79.3c0-10.35-1.98-20.23-5.59-29.29l14.27-8.43c4.97,11.57,7.72,24.32,7.72,37.71,0,52.85-42.84,95.7-95.7,95.7s-95.7-42.84-95.7-95.7,42.85-95.7,95.7-95.7"/>
      <path class="cls-1" d="M273.51,244.26c15.68,0,29.88,6.35,40.16,16.62l-13.98,10.43c-6.98-6.15-16.15-9.88-26.18-9.88-21.9,0-39.65,17.75-39.65,39.65s17.75,39.65,39.65,39.65,39.65-17.75,39.65-39.65c0-5.63-1.18-10.99-3.29-15.84l14.3-9.93c3.94,7.74,6.17,16.49,6.17,25.77,0,31.38-25.44,56.82-56.82,56.82s-56.82-25.44-56.82-56.82,25.44-56.82,56.82-56.82"/>
      <path class="cls-1" d="M273.51,282.62c3.01,0,5.85.72,8.36,1.99l-11.29,8.42c-4.15,3.09-4.94,9.23-1.02,12.82,3.02,2.78,7.16,2.4,10.37.18l11.77-8.18c.18,1.05.28,2.12.28,3.22,0,10.2-8.27,18.47-18.47,18.47s-18.47-8.27-18.47-18.47,8.27-18.47,18.47-18.47"/>
      <path class="cls-1" d="M364.88,234.68l1.67-26.56-41.55,37.21-.53,12.98-51.27,38.25c-4.01,2.99-.76,9.33,4.22,5.87l53.44-37.11,12.51,3.66,47.62-28.13-26.1-6.17Z"/>
    </g>
    <path class="cls-2" d="M164.21,300.21c0-59.87,48.54-108.41,108.41-108.41,1.01,0,2,.12,3,.15,0-3.1-.01-6.2.14-9.3.26-5.28,0-10.57.28-15.86.24-4.69.03-9.4.28-14.1.23-4.51.07-9.04.27-13.56.22-4.92.05-9.85.3-14.78.17-3.29-.05-6.6.28-9.89.16-1.57-.36-2.68-1.86-3.39-1.26-.6-2.53-1.23-3.64-2.09-.74-.57-1.57-.87-2.46-1.06-4.74-1-9.4-2.3-13.83-4.3-.59-.26-1.2-.4-1.84-.4-.45,0-.9,0-1.36,0-7.1.1-14.19,0-21.29.22-5.87.19-11.76.09-17.64.11-.54,0-1.09.01-1.63.04-3.11.15-6.23.32-9.34.45-3.34.14-6.69.23-10.03.34-.09,0-.18,0-.27.01-2.83.38-5.69.14-8.53.42-2.02.2-4.06.11-6.09.26-2.43.18-4.88.11-7.31.3-1.98.15-3.97.17-5.96.24-3.07.1-6.14.32-9.21.37-1.94.03-3.89-.03-5.73.72-1.25.07-2.36.55-3.48,1.07-.41.19-.85.3-1.29.4-2.11.51-4.21,1.05-6.33,1.5-.89.19-1.59.6-2.17,1.27-.21.24-.4.49-.61.73-1.66,1.97-3.26,4-5.09,5.82-.36.36-.64.76-.88,1.19-.47.83-.94,1.65-1.43,2.46-.38.62-.73,1.25-.98,1.93-.36,1.01-.51,2.02-.04,3.04.15.33.25.69.18,1.05-.38,1.93-.18,3.88-.23,5.82-.03,1.08,0,2.17-.07,3.25-.21,2.8-.22,5.61-.06,8.4.18,2.94.14,5.87.12,8.81,0,.99-.24,1.98-.18,2.97.06.95.15,1.89.18,2.84.13,3.61.17,7.23.26,10.84.21,8.27.01,16.54.28,24.82.3,9.31-.01,18.63.29,27.94.15,4.47.07,8.95.05,13.43-.02,4.43.11,8.86-.21,13.29-.21,3.02-.21,6.05-.26,9.08-.18,9.9-.12,19.8-.3,29.7-.1,5.24-.05,10.49-.08,15.74,0,.68,0,1.36-.09,2.03-.12.9-.16,1.8-.19,2.7-.01.54-.03,1.09-.07,1.63-.21,2.39-.18,4.79-.09,7.18.09,2.53.28,5.05.47,7.58.13,1.67.34,3.33.5,4.99.15,1.53,1,2.47,2.41,2.96,1.03.36,2.08.6,3.15.82.34.07.71.06,1.05.37-.48.04-.89.04-1.29.12-.84.15-1.78.16-2.44.73-.66.56-1.36.63-2.14.63-3.3,0-6.6,0-9.9,0-.59,0-1.18.02-1.76.11-.63.1-1.26.14-1.89.15-1.32.02-2.61.27-3.87.6-.39.1-.77.28-1.11.5-.64.4-.69,1.07-.13,1.59.43.4.93.74,1.47.95.97.38,1.93.79,2.93,1.07,3.44.98,6.94,1.68,10.45,2.34,2.58.48,5.17.87,7.76,1.27,2.05.32,4.11.61,6.17.93,1.7.26,3.4.44,5.11.59,2.25.2,4.49.49,6.73.72,1.21.13,2.43.17,3.64.34,1.25.17,2.51.28,3.68.85.77.38,1.55.73,2.24,1.26.71.56,1.45,1.11,2.36,1.29.84.16,1.7.33,2.55.33,2.39,0,4.79.22,7.17-.2.26-.05.54-.05.81-.04,1.34.05,2.66-.13,3.97-.35-7.78-14.95-12.25-31.91-12.25-49.93Z"/>
  </g>
</svg>