<?xml version="1.0" encoding="UTF-8"?>
<svg id="Camada_1" data-name="Camada 1" xmlns="http://www.w3.org/2000/svg" viewBox="0 0 500 500">
  <defs>
    <style>
      .cls-1 {
        fill: #2B674B;
      }
    </style>
  </defs>
  <path class="cls-1" d="M250,476.48c-60.5,0-117.37-23.56-160.15-66.33-42.78-42.78-66.33-99.65-66.33-160.15s23.56-117.37,66.33-160.15S189.5,23.52,250,23.52s117.37,23.56,160.15,66.33c42.78,42.78,66.33,99.65,66.33,160.15s-23.56,117.37-66.33,160.15c-42.78,42.78-99.65,66.33-160.15,66.33ZM250,38.52c-116.61,0-211.48,94.87-211.48,211.48s94.87,211.48,211.48,211.48,211.48-94.87,211.48-211.48S366.61,38.52,250,38.52Z"/>
  <g>
    <path class="cls-1" d="M375.32,325.58v-14.42c0-8.74-5.35-16.28-12.93-19.53v-14.82c0-11.84-9.63-21.47-21.47-21.47h-16.91c2.11,2.79,3.64,6.04,4.41,9.58h12.5c6.56,0,11.9,5.34,11.9,11.9v13.16c-2.61.16-5.1.79-7.38,1.82.35,1.53.54,3.11.54,4.74v29.06h-3.9v-29.06c0-10.03-7.05-18.49-16.44-20.68v-5.68c0-13.58-11.05-24.63-24.63-24.63h-23.7c.04,3.23.18,6.43.4,9.58h23.29c8.3,0,15.05,6.75,15.05,15.06v5.68c-9.39,2.19-16.44,10.65-16.44,20.68v29.06h-6.13v-19.17l-60.9-35.58h-53.12c-8.56,0-15.51,6.94-15.51,15.51v75.39c0,10.28,8.33,18.61,18.61,18.61h181.14c10.28,0,18.61-8.33,18.61-18.61v-36.16h-7Z"/>
    <path class="cls-1" d="M161.98,202.02c6.08,9.29,16.58,15.42,28.51,15.42,9.94,0,18.88-4.26,25.11-11.05-1.9-1.78-3.63-4.1-4.88-7.02-1.68-4.09-1.72-8.32-.84-11.05.77,1.29,2.58,5.66,5.41,10.13.8,1.28,1.66,2.5,2.54,3.68,3.54,4.69,9.06,7.52,14.93,7.59.18,0,.36,0,.54,0,14.19-.12,25.82-11.62,26.09-25.82.23-12.03-7.61-22.27-18.47-25.66.02-.4.03-.79.03-1.19,0-17.17-13.92-31.1-31.09-31.1-6.03,0-11.65,1.72-16.42,4.69,6.06,5.97,9.49,14.15,8.81,21.37-.15-.25-.49-.87-.84-1.58-3.58-7.07-7.25-12.31-11.73-17.04,0,0,0,0-.01.01-.17-.19-.34-.37-.5-.55-.12-.12-.24-.25-.36-.37h0c-7.56-7.96-18.26-12.9-30.12-12.83-23.06.13-41.42,18.95-41,42.01.41,22.42,18.71,40.48,41.24,40.48,1.03,0,2.04-.04,3.05-.11ZM133.69,186.57c-6.77-6.65-10.59-15.53-10.76-25.01-.18-9.75,3.45-18.93,10.22-25.86,6.76-6.92,15.85-10.76,25.58-10.82h.2c5.02,0,9.88,1.01,14.43,3.01,2.07.91,4.03,2,5.88,3.26-2.8-.69-5.68-1.04-8.62-1.04h-.2c-9.74.05-18.82,3.9-25.58,10.82-6.77,6.93-10.39,16.11-10.22,25.86.17,9.48,3.99,18.36,10.76,25.01,1.54,1.51,3.18,2.86,4.93,4.06-6.22-1.52-11.94-4.7-16.62-9.29Z"/>
    <path class="cls-1" d="M179.01,258.15c0,1.9-.05,3.79-.13,5.66h30.24c.74-6.09,1.13-12.41,1.13-18.85v-6.97l-30.12-.11c-3.34,0-6.05,2.71-6.05,6.05v.78c0,2.96,2.12,5.41,4.92,5.94v.02l30.32,1.02-30.32,1.02v5.44Z"/>
    <path class="cls-1" d="M209.86,225.2v1c0,3.79,2.72,6.94,6.31,7.62v.03l38.88,1.31-38.88,1.32v6.97c0,6.98-.46,13.82-1.33,20.37h20.31l45.49,26.58c-2.09-5.64-3.8-11.88-5.07-18.54-.01,0-.02,0-.04,0-1.68-8.89-2.58-18.51-2.58-28.41v-9.63c3.59-.68,6.31-3.83,6.31-7.62v-1c0-4.28-3.47-7.75-7.75-7.75h-53.91c-4.28,0-7.75,3.47-7.75,7.75Z"/>
  </g>
</svg>