<?xml version="1.0" encoding="UTF-8"?>
<svg id="Camada_1" data-name="Camada 1" xmlns="http://www.w3.org/2000/svg" viewBox="0 0 500 500">
  <defs>
    <style>
      .cls-1 {
        fill: #2B674B;
      }
    </style>
  </defs>
  <path class="cls-1" d="M250,476.48c-60.5,0-117.37-23.56-160.15-66.33-42.78-42.78-66.33-99.65-66.33-160.15s23.56-117.37,66.33-160.15S189.5,23.52,250,23.52s117.37,23.56,160.15,66.33c42.78,42.78,66.33,99.65,66.33,160.15s-23.56,117.37-66.33,160.15c-42.78,42.78-99.65,66.33-160.15,66.33ZM250,38.52c-116.61,0-211.48,94.87-211.48,211.48s94.87,211.48,211.48,211.48,211.48-94.87,211.48-211.48S366.61,38.52,250,38.52Z"/>
  <g>
    <path class="cls-1" d="M147.67,293.83c-.54,0-1,.89-1,4.45s.47,4.45,1,4.45,1-.89,1-4.45-.47-4.45-1-4.45Z"/>
    <path class="cls-1" d="M192.36,301.08c0,1.07.37,1.77.77,1.77.2,0,.42-.2.48-.4v-4.25c-.55.1-1.26.89-1.26,2.88Z"/>
    <path class="cls-1" d="M200.51,297.86c-.39,0-.55.7-.55,1.66,0,.25,0,.44.02.6.27,0,.94-.59.94-1.56,0-.44-.12-.7-.4-.7Z"/>
    <path class="cls-1" d="M243.65,309.69h-7.54s0-5.41,0-5.41h8.78c2.01-.51,4.42-2.85,3.58-5.7-.76-2.62-2.48-3.47-6.04-3.47h-8.92s0,25.23,0,25.23l12.3.05c1.75-.05,2.97-1.99,3.48-3.69.44-1.46-.09-3.18-.51-4.1-.99-2.13-2.71-2.73-5.13-2.92Z"/>
    <path class="cls-1" d="M177.99,301.08c0,1.07.37,1.77.77,1.77.2,0,.42-.2.48-.4v-4.25c-.55.1-1.25.89-1.25,2.88Z"/>
    <path class="cls-1" d="M185.28,302c0,.59.25.85.47.85.23,0,.37-.22.42-.39v-1.97c-.22,0-.89.52-.89,1.51Z"/>
    <path class="cls-1" d="M255.28,148.85c-8.62.46-18.56,5.53-28.28,11.25-26.16,28.34-43.67,67.09-43.15,94.8,15.49-3.73,30.97-6.25,46.46-7.46,16.02-16.32,42.26-54.59,43.02-76.29,1.14-15.96-6.07-23.03-18.05-22.31Z"/>
    <path class="cls-1" d="M212.92,260.13c-8.89.24-17.78.92-26.67,2.08,4.86,7.14,15.58,4.15,26.67-2.08Z"/>
    <path class="cls-1" d="M162.3,302c0,.59.25.85.47.85.23,0,.37-.22.42-.39v-1.97c-.22,0-.89.52-.89,1.51Z"/>
    <path class="cls-1" d="M381.65,332.39c-1.47-.56-2.9-1.01-4.46-1.35h0c-1.42-.33-2.75-.56-4.07-.72-1.25-.16-2.6-.25-4.12-.31h-.01l-4.83-.18v-12.98l-2.24-.85h0s-.03-.01-.03-.01c-3.17-1.17-6.51-1.96-10-2.42,17.96-20.33,18.63-49.19,7.11-80.42,20.88-68.43-22.13-95.62-63.57-101.35-41.79-45.86-87.24-36.18-119.63,4.4-54.82,11.49-77.1,51.68-55.99,105.76-13.72,43.43-2.38,78.64,38.27,94.6v31.4l1.52,1.04.04.03h0c1.4.98,2.82,1.87,4.24,2.7,1.41.82,2.83,1.57,4.23,2.25,5.75,2.79,11.32,4.38,16,4.86v9.75l1.16,1.03h0s.03.02.03.02c24.96,21.91,75.91-.91,111.39-16.8,14.86-6.66,26.78-12,31.19-12.27v13.84l2.02.93c4.99,2.31,10.83,1.68,17.87.93,9.58-1.03,21.66-2.32,35.37,4.2l4.94,2.35v-47.68l-2.07-.91c-1.54-.68-2.89-1.27-4.35-1.82ZM384.6,377.33c-24.09-11.46-42.81-.31-53.27-5.15v-2.93c.51-1.39,1.81-2.74,3.46-3.99,4.76-3.6,12.4-6.32,12.4-6.32l-12.4-.79-3.5-.22c-11.47-7.7-108.26,60.22-143.73,29.08v-11.5c-6.62.16-16.45-2.8-26.03-9.38v-32.65c-59.4-20.46-43.04-75.56-36.89-91.43-33.07-82.38,34.69-98.75,53.48-101.66,54.79-69.78,102.82-19.34,114.75-4.51,87.84,12.56,68.17,79.38,61.29,97.13,16.5,41.11,7.89,65.78-7.22,80.55-.15.15-.3.29-.45.43-.81.77-1.63,1.52-2.47,2.24-.03.03-.06.06-.1.08-.07.06-.15.12-.22.18,0,0,0,0,.01,0,1.76,0,3.48.07,5.17.21,4.17.35,8.12,1.15,11.8,2.52v13.92l8.17.31c2.7.11,5,.37,7.59.97,2.79.61,5.09,1.61,8.15,2.96v39.95Z"/>
    <path class="cls-1" d="M371.74,353.64s6.01,2.84,9.4,5.91c1,.91,1.77,1.83,2.09,2.71l.24-4.17s-.91-.58-2.33-1.32c-2.38-1.25-6.17-2.96-9.4-3.14Z"/>
    <path class="cls-1" d="M371.74,344.81s6.01,2.84,9.4,5.92c1,.91,1.77,1.83,2.09,2.71l.24-4.17s-.91-.58-2.33-1.32c-2.38-1.25-6.17-2.96-9.4-3.14Z"/>
    <path class="cls-1" d="M381.14,344.22c1,.91,1.77,1.83,2.09,2.71l.24-4.17s-.91-.58-2.33-1.32c-2.38-1.25-6.17-2.96-9.4-3.14,0,0,6.01,2.84,9.4,5.92Z"/>
    <path class="cls-1" d="M373.14,360.19s4.95,3.14,8,6.03c1.25,1.19,2.19,2.33,2.33,3.2v-4.46s-.94-.64-2.33-1.45c-2.16-1.26-5.42-2.95-8-3.31Z"/>
    <path class="cls-1" d="M187.44,363.49l.25,6.02s4.3,3.35,12.31,2.82c0,0-11.23-3.49-12.56-8.84Z"/>
    <path class="cls-1" d="M197.99,363.71s-9.47-3.48-10.61-8.67l.24,5.84s3.63,3.27,10.38,2.83Z"/>
    <path class="cls-1" d="M196.33,356.87s-8.21-3.56-9.23-8.76l.24,5.83s3.16,3.31,8.99,2.93Z"/>
    <path class="cls-1" d="M162.17,357.26l.37,6.06s.99.53,2.54,1.03c2.35.76,6,1.45,9.63.18,0,0-5.85-.37-9.72-3.46-1.22-.97-2.24-2.22-2.82-3.81Z"/>
    <path class="cls-1" d="M162.5,351.62l.1,5.11s.82.72,2.4,1.43c1.62.72,4.04,1.43,7.23,1.33,0,0-4.32-1.63-7.23-4.19-1.23-1.08-2.21-2.32-2.5-3.68Z"/>
    <path class="cls-1" d="M162.37,345.24l.1,5.11s.86.76,2.52,1.49c1.62.7,4,1.37,7.1,1.27,0,0-4.2-1.58-7.1-4.07-1.29-1.11-2.33-2.39-2.63-3.8Z"/>
    <path class="cls-1" d="M162.46,338.15s-.02-.05-.02-.08v.07s.1,4.88.1,4.88c0,0,.84.86,2.45,1.61,1.35.63,3.24,1.18,5.65,1.11,0,0-3.23-1.42-5.65-3.66-1.22-1.13-2.23-2.46-2.53-3.93Z"/>
    <path class="cls-1" d="M162.93,333.97s0-.02-.01-.03c-.28-.56-.49-1.14-.59-1.75l.03,1.56v.02s.07,3.36.07,3.36c0,0,.86,1.01,2.5,1.81.02.01.05.02.07.03.77.36,1.7.68,2.79.83.52.07,1.07.1,1.65.08,0,0-2.41-1.24-4.44-3.22-.81-.79-1.55-1.7-2.06-2.7Z"/>
    <path class="cls-1" d="M356.84,321.61c-1.49-.55-3.41-1.07-5.52-1.15-1.54-.07-3.18.1-4.81.65,0,0,6.77.51,10.72,4.78.97,1.05,1.77,2.32,2.26,3.87l.2-6.77h.14s-1-.61-2.59-1.23c-.12-.05-.26-.1-.39-.14Z"/>
    <path class="cls-1" d="M349.11,327.09s5.04,2.25,8.12,5.56c1.1,1.18,1.94,2.49,2.22,3.89,0,.04.03.08.03.12v-5.99s-.77-.77-2.26-1.59c-1.73-.96-4.45-2-8.12-2Z"/>
    <path class="cls-1" d="M359.48,344.15v-5.99s-3.54-3.59-10.38-3.59c0,0,9.43,4.19,10.38,9.58Z"/>
    <path class="cls-1" d="M350.52,343.25s7.93,4.06,8.73,9.28v-5.8s-2.98-3.48-8.73-3.48Z"/>
    <path class="cls-1" d="M351.7,350.14s6.86,4.06,7.55,9.27v-5.8s-2.57-3.48-7.55-3.48Z"/>
    <path class="cls-1" d="M345.52,234.81h-.12c6-15.09,26.13-78.89-56.89-90.46l-.05.1c-10.07-12.75-55.26-62.07-106.79,4.04l.06.1c-16.07,2.35-81.38,16.82-49.89,94.5h.11c-5.98,15.03-25.95,78.36,55.9,90.3.35.02.7.04,1.05.05h0s0,0,0,0c10.1.45,17.69-1.22,21.84-2.14.76-.17,1.44-.32,1.54-.34l.65-.14v3.53h.06s0,4.11,0,4.11v.19c-2.05,1.11-5.16,2.46-9.19,3.05-2.63.38-5.02.34-7.04.12-2-.22-3.65-.62-4.83-.97,2.45,1.62,5.45,3.34,8.97,4.86.97.42,3.07,1.3,5.85,2.17,2.32.73,4.43,1.23,6.24,1.6,23.83,6.69,74.43-24.24,115.28-31.5,19.67-11.95,36.46-35.81,17.26-83.17ZM149.82,305.86c.1,0,.35-.05.48-.05v1.91s-.23.05-.67.05c-1.25,0-2.98-.64-3.14-3.16-1.36-.62-2.36-2.41-2.36-6.32,0-4.99,1.64-6.54,3.55-6.54s3.55,1.56,3.55,6.54c0,3.93-1.02,5.72-2.39,6.31.07.75.39,1.27.99,1.27ZM158.77,301.16c0,2.51-1.27,3.66-2.98,3.66s-2.98-1.15-2.98-3.66v-5.05h2.34v5.55c0,.62.27,1.07.64,1.07s.64-.45.64-1.07v-5.55h2.34v5.05ZM165.52,304.74h-2.17v-.64l-.69.69c-.1.03-.18.03-.25.03-1.15,0-2.31-1.09-2.31-2.83,0-2.53,2.28-3.35,3.08-3.41v-.05c0-.37-.25-.6-.75-.6s-.8.05-1.27.17v-1.89s.59-.18,1.49-.18c1.54,0,2.88.6,2.88,3.2v5.52ZM169.71,304.74h-2.34v-12.92h2.34v12.92ZM174.06,304.74h-2.34v-8.63h2.34v8.63ZM171.78,294.9v-3.08h2.21v3.08h-2.21ZM181.59,304.74h-2.21v-.5l-.55.57c-.08.02-.22.02-.22.02-1.59,0-2.96-1.19-2.96-3.93,0-3.7,2.59-4.67,3.6-4.77v-4.3h2.34v12.92ZM188.51,304.74h-2.18v-.64l-.69.69c-.1.03-.18.03-.25.03-1.15,0-2.31-1.09-2.31-2.83,0-2.53,2.28-3.35,3.08-3.41v-.05c0-.37-.25-.6-.75-.6s-.8.05-1.27.17v-1.89s.59-.18,1.49-.18c1.54,0,2.88.6,2.88,3.2v5.52ZM193.2,304.81c-.08.02-.22.02-.22.02-1.59,0-2.96-1.19-2.96-3.93,0-3.7,2.59-4.67,3.6-4.77v-4.3h2.34v12.92h-2.21v-.5l-.55.57ZM219.74,326.27v-11.38h-7l3.21-4.96h3.79s0-10.86,0-10.86l-18.16,27.21h-6.06s24.22-36.77,24.22-36.77h5.32s0,36.77,0,36.77h-5.32ZM201.03,302.92c.32,0,.52-.02.75-.07v1.89c-.23.05-.57.08-.95.08-1.34,0-3.19-.72-3.19-4.42s1.69-4.38,2.91-4.38c1.1,0,2.49.75,2.49,2.71,0,2.33-2.28,3.25-2.95,3.3.05.45.42.89.94.89ZM254.71,321.22c-1.38,2.21-3.07,5.05-5.94,5.05h-20.84s0-36.77,0-36.77h20.96c3.76,0,6.07,4.46,5.72,9.6-.1,1.41-.6,2.74-1.23,3.68-.65.98-1.85,1.94-2.86,2.56-.69.43-1.54.54-2.16,1.03h.1c.6.45,1.55.51,2.25.82,1.3.58,2.79,1.76,3.58,2.87,2.36,3.27,2.56,7.73.41,11.16ZM263.51,326.27h-5.62v-36.77h5.62v36.77ZM299.89,318.04c-1.75,2.45-4.47,4.8-7.38,6.05-1.46.62-3.06.9-4.71,1.32-2.81.62-7.5-.03-9.84-.92-10.66-4.01-15.26-15.91-10.03-25.8,2.62-5.01,6.34-8.03,12.29-9.73,1.32-.38,4.15-.62,5.74-.43,1.25.06,2.29.17,3.17.43,3.35,1,6.33,2.44,8.5,4.61.22.22.6.6.82.82,1.12,1.12,3.16,3.86,3.43,5.68h-5.78c-1.93-3.91-8.92-7.66-14.97-5.79-4.11,1.33-7.34,3.94-9.01,7.89-.68,1.63-1.37,4.58-.92,7.17,1.18,5.1,3.98,8.09,8.09,9.94,1.31.55,4.07,1.18,5.94,1.02,1.36-.05,3.28-.4,4.71-1.02,1.45-.64,3.45-1.84,4.41-2.97.58-.68,1.17-1.41,1.78-1.98h5.94c-.65,1.32-1.39,2.61-2.18,3.72ZM273.45,305.64c.58-5.59,5.31-9.94,11.04-9.94s10.46,4.36,11.04,9.94h-22.09ZM295.52,308.18c-.68,5.48-5.35,9.73-11.02,9.73s-10.34-4.25-11.02-9.73h22.04ZM333.67,262.46c-3.38,8.55-7.39,18.41-18.74,21.32-1.98.51-2.84.15-2.98-.39-.14-.55.44-1.26,1.26-1.85,4.04-2.96,5.84-4.96,5.28-7.11-2.49-9.74-50.31-14.21-78.65-14.64-9.89,7.14-19.3,11.66-27.77,13.82-13.34,3.41-24.55.9-32.76-7.17-.77-.76-1.59-1.7-2.36-2.46-7.48,2.3-13.47,4.4-14.26,8.06-.45,2.03-2.02,3.4-3.46,3.77-1.81.46-3.71-.21-4.21-2.19-.14-.54-.1-1.12-.1-1.89-.03-4.6,6.81-9.42,18.16-13.86-.92-2.07-1.7-4.37-2.29-6.71-7.75-30.28,12.94-73.99,39.72-103.7,4.49-5,9.65-10.35,14.83-11.86,3.2-1.01,7.5,1.53,10.94,2.96,2.02-1.1,4.45-2.1,7.16-2.8,16.94-4.33,40.42,5.6,47.64,20.27,1.1,2.03,1.87,4.33,2.43,6.49,7.43,29.03-20.97,67.41-37.05,82.66,19.09-.46,48.92-.99,60.94,1.7,6.51,1.41,15.59,3.12,17.11,9.07.46,1.8.25,3.97-.83,6.55Z"/>
    <path class="cls-1" d="M296.44,357.35c-.27-.07-.48-.24-.62-.54-.14-.29-.21-.94-.21-1.96v-13.12l-.74.27-1.18.94-3.44,2.74.23.56c.13-.1.24-.17.36-.25.29-.19.55-.35.77-.43.29-.11.52-.12.69-.03.17.09.29.3.37.66.1.49.15,1.61.15,3.38v6.29c0,1.01-.07,1.72-.23,2.13-.15.41-.35.74-.61.99-.25.25-.75.51-1.5.78v.64l7.45-2.71v-.64c-.73.26-1.23.36-1.5.3Z"/>
    <path class="cls-1" d="M294.22,337.33c.47-.17.87-.5,1.2-.97.33-.48.49-.96.49-1.46s-.17-.86-.49-1.1c-.33-.23-.73-.26-1.2-.09-.48.17-.89.5-1.21.96-.33.47-.5.96-.5,1.46s.17.86.5,1.1c.34.23.74.27,1.21.1Z"/>
    <path class="cls-1" d="M289.16,344.82c-.4-.24-.91-.25-1.52-.01-1.34.51-2.65,2.24-3.92,5.18v-3.67l-.7.27-4.61,3.76.16.58c.44-.34.82-.58,1.16-.72.29-.11.53-.12.73-.03.19.09.33.3.4.64.07.34.11,1.45.11,3.35v6.33c0,.95-.03,1.54-.08,1.76-.11.46-.31.84-.58,1.13-.37.41-.95.76-1.73,1.06v.64l7.8-3v-.64c-.69.26-1.21.36-1.58.28-.36-.07-.62-.24-.77-.51-.21-.38-.31-1.03-.31-1.93v-7.82c.53-1.32,1.04-2.32,1.54-3,.23-.33.45-.52.65-.6.23-.09.59-.02,1.07.2.48.22.92.26,1.31.11.4-.15.74-.44,1.03-.88.29-.43.43-.88.43-1.35,0-.52-.2-.9-.6-1.15Z"/>
    <path class="cls-1" d="M308.32,337.68c-.29.05-.59.12-.9.21-.04.01-.08.03-.13.05-1.26.38-2.45,1.07-3.57,2.08-1.16,1.04-2.1,2.4-2.82,4.09-.71,1.68-1.07,3.27-1.07,4.77,0,2.05.59,3.74,1.77,5.05,1.39,1.56,3.27,2,5.64,1.32,1.45-.42,2.77-1.17,3.95-2.27,1.18-1.1,2.11-2.5,2.78-4.19.67-1.69,1.01-3.26,1.01-4.73,0-2.07-.61-3.74-1.83-5-1.26-1.27-2.87-1.73-4.83-1.38ZM310.72,351.56c-.73,1.16-1.64,1.89-2.74,2.21-1.49.43-2.68-.09-3.59-1.56-.91-1.46-1.36-3.38-1.36-5.76,0-1.47.19-2.73.57-3.78.37-1.05.87-1.84,1.48-2.4.61-.55,1.22-.91,1.82-1.08,1.26-.36,2.29-.09,3.1.82,1.2,1.32,1.8,3.42,1.8,6.33,0,2.32-.36,4.05-1.08,5.21Z"/>
    <path class="cls-1" d="M327.7,333.29c-.42-.31-.96-.41-1.59-.29-1.41.27-2.79,1.76-4.13,4.48v-3.67l-.73.14-4.85,2.94.17.61c.46-.27.87-.44,1.22-.51.31-.06.56-.02.76.1.2.12.35.36.42.71.08.35.11,1.47.11,3.37v6.33c0,.95-.03,1.53-.08,1.75-.12.44-.32.78-.61,1.03-.39.34-1,.59-1.82.75v.64l8.2-1.59v-.64c-.72.14-1.27.14-1.66,0-.38-.14-.65-.35-.81-.65-.22-.42-.33-1.09-.33-1.99v-7.82c.55-1.23,1.1-2.14,1.62-2.72.24-.28.47-.44.68-.48.24-.05.62.09,1.13.4.51.31.97.43,1.37.35.42-.08.78-.31,1.09-.69.3-.38.45-.8.45-1.27,0-.52-.21-.94-.63-1.26Z"/>
    <path class="cls-1" d="M275.51,351.41c-.35-.25-.74-.41-1.15-.51-.87-.2-1.88-.08-3.03.38-2.01.81-3.67,2.27-5,4.37-.14.22-.27.45-.39.67-1.07,1.94-1.6,4.16-1.6,6.66,0,.94.09,1.77.26,2.49.3,1.28.86,2.24,1.68,2.88.02.02.04.03.07.04,1.28.96,2.81,1.08,4.6.36,1.67-.67,3.06-1.91,4.18-3.7.36-.57.65-1.13.91-1.7.56-1.2.94-2.39,1.1-3.56l-.51-.15c-.5,1.62-1.11,2.88-1.84,3.76-.73.89-1.6,1.53-2.59,1.93-1.48.6-2.78.44-3.88-.49-.28-.24-.52-.52-.73-.85-.62-.98-.92-2.38-.91-4.2l10.45-4.22c0-2.02-.55-3.41-1.63-4.17ZM266.7,358.78c.11-1.33.51-2.51,1.16-3.53.04-.06.07-.12.11-.18.72-1.06,1.54-1.77,2.45-2.14.47-.19.93-.25,1.37-.18.11.02.23.03.34.07.55.16.96.52,1.23,1.07.18.35.29,1.04.35,2.07l-7,2.83Z"/>
    <path class="cls-1" d="M245.91,376.21c-.45.31-.85.5-1.22.58-.25.06-.47.03-.67-.09-.19-.12-.33-.38-.41-.79-.07-.3-.11-1.04-.12-2.22,0-.37,0-.77,0-1.22v-9.89l-2.22.51-3.2.74v.66c1.04-.22,1.73-.2,2.06.05.33.25.5.84.5,1.76v9.25c-.87,1.1-1.62,1.89-2.25,2.36-.63.46-1.19.76-1.69.87-.73.17-1.35.07-1.87-.29-.52-.36-.78-1.29-.78-2.81v-10.92l-5.57,1.29v.66c.83-.2,1.41-.27,1.72-.18.32.09.56.26.72.52.16.26.24.78.24,1.55v7.29c0,1.52.12,2.67.38,3.44.25.77.71,1.35,1.36,1.73.66.38,1.43.46,2.32.26.79-.18,1.55-.55,2.27-1.11.72-.55,1.76-1.75,3.13-3.59v3.45l.78-.18,4.76-3.11-.24-.57Z"/>
    <path class="cls-1" d="M223.8,371.72c-.34-.3-.8-.67-1.38-1.09-.83-.61-1.9-1.33-3.22-2.18-2.75-1.77-4.49-3.14-5.23-4.11-.38-.49-.62-1-.71-1.54-.03-.18-.05-.37-.05-.55,0-.96.4-1.78,1.2-2.45.8-.67,1.82-.94,3.05-.81,1.09.11,2.14.5,3.15,1.17,1.02.66,1.8,1.5,2.35,2.51.54,1.01.93,2.32,1.14,3.95l.65.07v-8.36l-.65-.07c-.12.54-.28.9-.47,1.06-.19.16-.45.23-.76.19-.27-.03-.74-.22-1.4-.59-1.13-.62-2.22-1.03-3.26-1.24-.27-.05-.54-.1-.8-.13-2.04-.21-3.73.23-5.05,1.35-.81.68-1.37,1.48-1.68,2.39-.2.58-.3,1.21-.3,1.88,0,.87.18,1.7.53,2.49.05.11.09.22.15.33.45.88,1.11,1.7,1.98,2.49.87.78,2.33,1.86,4.38,3.23,2.06,1.38,3.32,2.26,3.77,2.67.68.59,1.19,1.21,1.52,1.85.32.64.48,1.26.48,1.85,0,1.07-.43,1.95-1.28,2.65-.86.69-2.03.96-3.5.81-1.28-.13-2.45-.54-3.51-1.22-1.07-.68-1.86-1.49-2.38-2.4-.52-.92-.94-2.26-1.25-4.02l-.65-.07v8.28l.65.07c.08-.55.21-.91.38-1.07.18-.16.41-.22.7-.19.31.03,1.04.3,2.19.8,1.15.49,1.91.79,2.27.88.62.17,1.27.3,1.97.37,2.22.23,4.03-.24,5.45-1.42,1.41-1.18,2.12-2.68,2.12-4.51,0-.96-.22-1.9-.66-2.83-.44-.92-1.08-1.76-1.9-2.49Z"/>
    <path class="cls-1" d="M260.02,358.01c-1.03-.91-2.31-1.09-3.85-.53-.88.32-1.72.92-2.52,1.78-.58.62-1.15,1.48-1.72,2.55-.22.42-.45.86-.67,1.34v-3.81l-.64.23-4.01,3.18-.71.57.2.5c.42-.32.75-.52,1.02-.62.34-.12.6-.15.79-.08.19.07.34.23.43.48.09.25.13.91.13,1.97v15.44c0,1.19-.06,1.94-.17,2.28-.12.34-.29.61-.5.81-.43.42-.96.74-1.57.95l-.42.15v.66l1.09-.4,6.95-2.53v-.66c-.84.31-1.42.42-1.73.36-.32-.06-.54-.22-.67-.48-.13-.26-.19-.94-.19-2.06v-4.97c.55.33,1.06.5,1.5.52.61.03,1.32-.11,2.14-.41,1.9-.69,3.48-2.02,4.72-3.98.09-.15.17-.3.26-.45.75-1.28,1.3-2.62,1.63-4.01.26-1.08.39-2.2.39-3.36,0-1.96-.38-3.48-1.14-4.58-.22-.32-.47-.61-.75-.86ZM257.75,371.46c-.06.12-.11.24-.17.36-.69,1.18-1.59,1.97-2.71,2.37-.93.34-1.7.36-2.3.05-.6-.29-.98-.75-1.14-1.36,0-.01,0-.02-.01-.03-.1-.38-.15-1.23-.15-2.55v-6.09c.93-1.41,1.59-2.29,1.99-2.65.05-.05.11-.08.16-.12.47-.4.95-.71,1.43-.88.61-.22,1.16-.22,1.67-.05.31.11.6.26.87.51,1.03.96,1.54,2.7,1.54,5.19,0,.55-.03,1.08-.08,1.59-.15,1.38-.53,2.59-1.1,3.66Z"/>
  </g>
</svg>