<?xml version="1.0" encoding="UTF-8"?>
<svg id="Camada_1" data-name="Camada 1" xmlns="http://www.w3.org/2000/svg" viewBox="0 0 500 500">
  <defs>
    <style>
      .cls-1 {
        fill: #2B674B;
      }
    </style>
  </defs>
  <path class="cls-1" d="M250,476.48c-60.5,0-117.37-23.56-160.15-66.33-42.78-42.78-66.33-99.65-66.33-160.15s23.56-117.37,66.33-160.15S189.5,23.52,250,23.52s117.37,23.56,160.15,66.33c42.78,42.78,66.33,99.65,66.33,160.15s-23.56,117.37-66.33,160.15c-42.78,42.78-99.65,66.33-160.15,66.33ZM250,38.52c-116.61,0-211.48,94.87-211.48,211.48s94.87,211.48,211.48,211.48,211.48-94.87,211.48-211.48S366.61,38.52,250,38.52Z"/>
  <g>
    <path class="cls-1" d="M216.39,205.49c.74,0,.98-.27.98-.99-.02-5.95,0-11.9-.02-17.84,0-1.74-1.09-3.11-2.75-3.62-.21-.06-.4-.16-.6-.24h-.94c-.11.06-.21.14-.33.18-2.12.66-3.07,1.86-3.07,4.02-.01,5.79,0,11.58-.02,17.37,0,.78.21,1.13,1.07,1.11.83-.02.99-.41.98-1.12-.02-2.72-.01-5.45,0-8.17,0-.33.03-.66.05-1h3.64v1.07c0,2.72.02,5.45-.01,8.17,0,.78.27,1.04,1.04,1.04ZM215.34,192.97h-3.66c0-.72,0-1.42,0-2.12,0-1.37-.02-2.74.01-4.12.02-.97.77-1.69,1.72-1.74.96-.05,1.87.59,1.9,1.54.07,2.11.02,4.22.02,6.43Z"/>
    <path class="cls-1" d="M179.81,182.8h-4.13c-.07.39-.2.79-.2,1.18-.01,6.78,0,13.57-.02,20.35,0,.73.11,1.17,1.02,1.16.89-.01.94-.49.94-1.14,0-2.66,0-5.32,0-7.97,0-.39.06-.78.09-1.24.65,0,1.21.02,1.77,0,2.27-.07,3.85-1.7,3.86-3.96,0-1.5,0-3,0-4.5,0-1.37-.64-2.4-1.74-3.14-.48-.32-1.06-.49-1.6-.73ZM181.15,191.17c-.03,1.11-.75,1.79-1.84,1.83-.58.02-1.17,0-1.81,0v-7.99c.76,0,1.44-.05,2.12.01.87.08,1.51.85,1.54,1.84.04,1.43.04,2.87,0,4.31Z"/>
    <path class="cls-1" d="M168.27,205.41c1.6.3,3.57-.69,4.07-2.32.52-1.7.71-3.52-.22-5.18-1.44-2.6-2.89-5.19-4.46-7.71-.73-1.17-.75-2.35-.66-3.59.07-.96.91-1.63,1.87-1.6.96.03,1.7.73,1.77,1.71.03.34-.1.74.04,1.02.15.28.51.56.82.62.41.08.96.21,1.13-.48.5-2.07-.71-4.2-2.75-4.82-.21-.06-.4-.16-.6-.24h-.94c-.23.09-.46.17-.69.26-1.26.45-2.27,1.27-2.49,2.58-.3,1.74-.49,3.51.52,5.18,1.58,2.62,3.07,5.3,4.6,7.96.63,1.08.47,2.25.23,3.36-.19.87-1.1,1.31-1.99,1.19-.8-.12-1.44-.81-1.52-1.67-.02-.22-.03-.44,0-.66.08-.76-.23-1.05-1.01-1.06-.82-.01-1.06.35-.99,1.08.02.22,0,.44,0,.66.05,1.96,1.29,3.37,3.28,3.75Z"/>
    <path class="cls-1" d="M199.99,187.8c.12.27.57.53.87.53.35,0,.94-.22,1.01-.46.5-1.67-.37-3.65-1.92-4.49-.43-.24-.91-.39-1.37-.58h-1.13c-.07.06-.13.14-.21.17-2.25.81-3,1.86-3.01,4.26,0,2.66,0,5.32,0,7.97,0,2.28-.05,4.57.06,6.85.1,2.17,2.34,3.77,4.46,3.32,2.17-.46,3.18-1.89,3.19-4.38,0-.75-.19-1.06-1-1.06-.8,0-1.08.3-1,1.06.02.22.01.44-.01.66-.11,1.03-.88,1.71-1.89,1.69-1-.02-1.76-.76-1.76-1.8-.02-4.91-.01-9.82,0-14.73,0-1.01.72-1.74,1.66-1.8,1-.07,1.82.58,1.97,1.6.06.4-.08.86.08,1.2Z"/>
    <path class="cls-1" d="M228.62,203.98c0,1.22.29,1.48,1.5,1.49,1.03,0,2.06-.03,3.09.01.76.03.99-.34.98-1.02,0-.67-.12-1.17-.97-1.13-.83.04-1.66,0-2.5,0v-8.01c.92,0,1.76-.02,2.6,0,.83.02.87-.52.87-1.13,0-.6-.14-1.04-.89-1.01-.86.03-1.72,0-2.58,0v-8.12c.14-.04.2-.06.26-.06.69,0,1.38-.01,2.06-.02.98,0,1.21-.23,1.13-1.22-.03-.33-.18-.65-.28-.97h-4.51c-.63.38-.8.95-.79,1.67.04,1.81.01,3.63.01,5.44,0,4.69,0,9.38,0,14.07Z"/>
    <path class="cls-1" d="M185.61,203.98c0,1.22.29,1.48,1.5,1.49,1.03,0,2.06-.03,3.09.01.76.03.99-.34.98-1.02,0-.67-.12-1.17-.97-1.13-.83.04-1.66,0-2.5,0v-8.01c.92,0,1.76-.02,2.6,0,.83.02.87-.52.87-1.13,0-.6-.14-1.04-.89-1.01-.86.03-1.72,0-2.58,0v-8.2c.83,0,1.58,0,2.32,0,.98,0,1.21-.23,1.13-1.22-.03-.33-.18-.65-.28-.97h-4.51c-.63.38-.8.95-.79,1.67.04,1.81.01,3.63.01,5.44,0,4.69,0,9.38,0,14.07Z"/>
    <path class="cls-1" d="M222.56,184.13c0-.44-.2-.88-.3-1.33h-1.5c-.07.43-.2.85-.2,1.28-.02,2-.01,4.01,0,6.01,0,4.63,0,9.26,0,13.89,0,1.21.29,1.48,1.5,1.49,1.03,0,2.07-.03,3.1.01.85.04.87-.48.88-1.09,0-.64-.09-1.11-.91-1.06-.83.05-1.66.01-2.54.01v-1.28c0-5.98,0-11.95-.01-17.93Z"/>
    <path class="cls-1" d="M204.79,182.8c-.07.36-.2.73-.2,1.09-.01,6.85,0,13.7-.02,20.56,0,.76.25,1.05,1.04,1.04.8,0,1.01-.35,1.01-1.09-.02-6.82,0-13.64-.02-20.46,0-.38-.2-.76-.3-1.14h-1.5Z"/>
    <path class="cls-1" d="M256.62,209.04v-.06h-1.03c-37.79,0-75.57,0-113.36,0-.44,0-.87-.04-1.31-.06v.19c.44-.02.87-.06,1.31-.06,37.79,0,75.57,0,113.36,0h1.03Z"/>
    <path class="cls-1" d="M195.91,230.59q1.53-2.37,1.53-5.23c0-1.78.02-3.57-.02-5.35-.05-2.37-1.82-4.51-4.18-4.85-1.44-.21-2.93-.15-4.39-.17-1.53-.02-2.03.49-2.03,2.01,0,9.29,0,18.59,0,27.88,0,1.21.15,1.35,1.44,1.35,1.25,0,1.44-.18,1.44-1.37,0-3.91,0-7.82,0-11.73v-1.16c.67,0,1.2,0,1.72,0,2.4,0,3.24.85,3.24,3.29,0,3.13,0,6.26,0,9.39,0,1.56.03,1.59,1.36,1.59,1.36,0,1.41-.04,1.41-1.55,0-2.97-.04-5.95.01-8.92.03-1.92-.06-3.76-1.54-5.17ZM194.65,226.49c-.04,1.64-1.06,2.57-2.7,2.58-.71,0-1.42,0-2.22,0v-11.14c1.04,0,2.07-.11,3.07.03,1.07.15,1.83,1.26,1.85,2.52.04,2,.05,4.01,0,6.01Z"/>
    <path class="cls-1" d="M240.81,240.34c0,.71.04,1.45.24,2.13.69,2.37,3.19,4.02,5.53,3.75,2.84-.34,4.86-2.46,4.89-5.38.05-6.82.08-13.64,0-20.46-.04-3.6-3.1-5.93-6.57-5.21-2.4.5-4.07,2.7-4.09,5.47-.02,3.35,0,6.7,0,10.04,0,3.22-.01,6.45.01,9.67ZM243.62,220.65c0-1.65,1.03-2.78,2.51-2.78,1.49,0,2.47,1.09,2.48,2.79,0,3.32,0,6.64,0,9.95s0,6.64,0,9.95c0,1.7-.99,2.79-2.49,2.78-1.5-.01-2.5-1.12-2.5-2.78,0-6.64,0-13.27,0-19.91Z"/>
    <path class="cls-1" d="M183.9,219.83c-.08-2.28-1.88-4.33-4.16-4.66-1.5-.21-3.05-.15-4.58-.18-1.77-.03-1.8.01-1.8,1.75,0,9.26,0,18.52,0,27.78,0,.25,0,.5,0,.75,0,1.05.74.95,1.45.97.73.02,1.35-.05,1.35-.99,0-.94,0-1.88,0-2.82,0-3.44,0-6.88,0-10.48.9,0,1.67.01,2.45,0,2.95-.06,5.2-2.16,5.3-5.09.08-2.34.06-4.69-.02-7.04ZM181.15,226.69c-.04,1.4-1.09,2.35-2.5,2.38-.78.01-1.55,0-2.41,0v-11.18c1.01,0,1.98-.08,2.92.02,1.09.11,1.97,1.19,2,2.4.04,2.13.05,4.25,0,6.38Z"/>
    <path class="cls-1" d="M231.75,243.34c-1.15-.05-2.1-.94-2.24-2.13-.05-.43-.05-.87-.06-1.31-.04-1.08-.2-1.24-1.28-1.25-1.48-.01-1.54.05-1.54,1.52,0,.25,0,.5,0,.75.02,2.42,1.68,4.59,3.92,5.11,2.54.6,5.17-.48,6.1-2.82.95-2.37,1.13-4.92-.1-7.25-1.99-3.76-4.13-7.43-6.25-11.11-.6-1.04-1.02-2.07-.87-3.28.02-.5.02-1,.07-1.5.14-1.28,1.12-2.19,2.37-2.21,1.28-.02,2.29.82,2.48,2.08.06.43.08.87.09,1.31.03,1.19.13,1.3,1.29,1.3,1.43,0,1.5-.07,1.51-1.46,0-.28,0-.56,0-.84-.04-2.75-2.06-4.93-4.89-5.25-2.45-.28-4.98,1.52-5.54,4.08-.21.96-.09,1.99-.19,2.98-.14,1.44.3,2.68,1.01,3.91,2.02,3.49,3.91,7.05,5.99,10.51.98,1.62.92,3.27.69,4.98-.16,1.16-1.33,1.95-2.55,1.89Z"/>
    <path class="cls-1" d="M217.87,243.34c-1.15-.05-2.12-.93-2.25-2.12-.06-.56.02-1.14-.11-1.68-.08-.33-.41-.83-.66-.84-1.86-.13-2.24-.19-2.12,1.64.01.19,0,.38,0,.56.02,2.42,1.67,4.59,3.91,5.13,2.53.6,5.17-.47,6.11-2.81.96-2.37,1.13-4.92-.09-7.25-1.99-3.79-4.16-7.49-6.3-11.19-.58-1.01-.97-2.02-.84-3.2.03-.53.03-1.06.09-1.59.15-1.22,1.14-2.1,2.34-2.13,1.28-.02,2.3.82,2.49,2.07.07.49.11,1,.09,1.49-.03.86.35,1.16,1.19,1.14,1.55-.02,1.62-.06,1.61-1.65,0-.22,0-.44,0-.66-.03-2.76-2.04-4.93-4.88-5.27-2.45-.29-5.01,1.51-5.54,4.07-.23,1.11-.11,2.3-.19,3.45-.08,1.07.21,2.02.74,2.94,2.09,3.67,4.09,7.39,6.25,11,.97,1.62.93,3.27.69,4.97-.16,1.16-1.32,1.96-2.54,1.9Z"/>
    <path class="cls-1" d="M162.08,220.01c.14-1.22,1.13-2.11,2.33-2.14,1.28-.03,2.32.81,2.49,2.06.08.59,0,1.2.14,1.77.07.32.42.8.67.82,1.91.12,2.19.16,2.09-1.67-.01-.19,0-.38,0-.56-.03-2.77-2.03-4.93-4.87-5.28-2.44-.3-5.02,1.5-5.55,4.06-.25,1.21-.22,2.49-.16,3.73.04.81.21,1.69.6,2.4,2.06,3.79,4.14,7.57,6.35,11.27.97,1.62.94,3.27.7,4.97-.16,1.16-1.32,1.96-2.53,1.91-1.16-.05-2.12-.93-2.26-2.11-.07-.56.02-1.14-.11-1.68-.08-.33-.37-.78-.66-.86-1.58-.44-2.12.01-2.12,1.64,0,.16,0,.31,0,.47.01,2.91,2.01,5.11,4.91,5.41,2.59.27,5.2-1.75,5.62-4.47.16-1.01.02-2.06.08-3.09.06-1.04-.23-1.95-.74-2.85-2.09-3.66-4.13-7.36-6.24-11.01-.58-1.01-.98-2.02-.84-3.2.03-.53.03-1.06.09-1.59Z"/>
    <path class="cls-1" d="M151.36,217.87c.97.01,1.94,0,2.91,0,1.06,0,1.24-.21,1.25-1.37,0-1.27-.17-1.5-1.21-1.51-1.53,0-3.07,0-4.6,0-1.36,0-1.86.49-1.87,1.86-.02,2.03,0,4.07,0,6.1,0,7.1,0,14.21,0,21.31,0,1.49.45,1.95,1.86,1.96,1.53,0,3.07,0,4.6,0,1.05,0,1.23-.21,1.23-1.39,0-1.26-.18-1.48-1.23-1.49-1.18,0-2.36,0-3.47,0-.09-.18-.14-.24-.14-.29-.01-3.44-.03-6.88,0-10.33,0-.2.38-.54.6-.56,1-.06,2-.02,3-.03,1.05,0,1.24-.23,1.24-1.48,0-1.19-.17-1.39-1.22-1.4-1.18,0-2.36,0-3.48,0-.09-.18-.14-.23-.14-.28-.01-3.5-.02-7.01-.04-10.51,0-.54.29-.6.72-.6Z"/>
    <path class="cls-1" d="M205.01,217.89c1.03-.05,2.06-.01,3.1-.03.95-.01,1.13-.25,1.13-1.39,0-1.22-.18-1.48-1.14-1.48-1.47-.01-2.94,0-4.41,0-1.73,0-2.13.41-2.14,2.17,0,3.35,0,6.7,0,10.05,0,5.7,0,11.39,0,17.09,0,1.47.47,1.93,1.88,1.94,1.53,0,3.07,0,4.6,0,1.03,0,1.2-.21,1.21-1.41,0-1.21-.18-1.46-1.16-1.47-1.19-.01-2.37,0-3.71,0,0-3.68,0-7.21.03-10.74,0-.16.4-.44.62-.45,1.03-.05,2.06-.01,3.1-.03.94-.01,1.12-.27,1.12-1.5,0-1.14-.18-1.36-1.15-1.37-1.21-.01-2.42,0-3.72,0,0-3.73,0-7.32.03-10.91,0-.16.39-.44.61-.46Z"/>
    <path class="cls-1" d="M165.98,169.13c3.88,2.7,8.21,2.9,12.54,2.22,6.89-1.09,12.83-4.23,17.45-9.55,2.78-3.2,4.65-6.82,3.94-11.29-.12-.72-.32-1.43-.49-2.15,3.16,2.8,6.45,5.11,10.4,6.27-2.3.72-4.55,1.3-6.7,2.12-7.59,2.87-8.72,9.71-4.42,15.22,2.19,2.81,5.2,4.48,8.46,5.62,7.9,2.76,15.88,2.69,23.77-.05,6.73-2.34,10.02-7.22,10.07-14.28.01-1.73-.69-2.98-2.02-3.92-3.84-2.73-8.32-3.64-12.83-4.33-2.84-.44-5.73-.6-8.88-.91,1.75-1.1,3.13-2.2,3.49-3.94-1.04.77-2.01,1.79-3.21,2.3-4.36,1.87-8.54,1.13-12.38-1.47-6.25-4.23-10.34-10.13-12.61-17.24-.72-2.25-1.07-4.75-.94-7.1.19-3.32,2.02-5.82,5.32-7.1-.62-.04-1.17-.01-1.68.14-4.01,1.17-5.4,5.29-5.14,8.99.25,3.7,1.39,7.22,3.17,10.5.82,1.52,1.69,3.01,2.67,4.76-.66-.23-1.03-.36-1.6-.56,1.57,1.75,2.76,3.42,2.85,5.7.13,3.42-1.49,6-3.81,8.22-3.52,3.38-7.8,5.56-12.35,7.13-3.5,1.2-7.14,1.81-10.89,1.18-1.59-.27-3.2-.46-4.81-.68,1.94,1.74,4.23,2.25,6.94,2.29,5.54.09,10.62-1.62,15.42-4.26,3.69-2.04,7.17-4.35,9.35-8.12.57-.99.98-2.07,1.47-3.11.32,1.89-.24,3.59-1,5.21-2.11,4.5-5.73,7.54-9.99,9.84-5.22,2.81-10.72,4.32-16.7,3.04-4.14-.89-6.92-3.63-7.32-7.26.48.12,1.01.12,1.37.36,1.45,1,2.98.89,4.37.13,1.53-.83,3.04-1.81,4.3-2.99,3.14-2.94,6.4-5.57,10.46-7.22,2.33-.95,4.48-2.42,6.59-3.82,2.03-1.35,2.98-3.28,3.03-5.44-.07.05-.17.07-.21.14-2.3,3.76-5.71,6.16-9.7,7.8-4.01,1.64-7.52,3.96-10.53,7.09-1.11,1.15-2.5,2.05-3.76,3.06-.07-.08-.14-.17-.21-.25,1.27-1.61,2.65-3.15,3.79-4.85,1.77-2.62,4.15-4.39,7-5.6,2.62-1.11,5.26-2.18,7.85-3.35,1.94-.87,3.71-2.01,4.93-3.85.53-.8.59-1.44-.13-2.21-1.35-1.44-3.02-2.17-4.92-2.18-3.16-.02-6.04,1.13-8.64,2.82-2.54,1.66-5.06,3.38-7.39,5.32-2.73,2.27-5.48,4.6-7.8,7.28-3.8,4.39-2.8,10.94,2.05,14.32ZM202.49,163.33c2.97.15,5.95.42,8.89.86,3.12.47,6.18.31,9.29-.1,2.53-.34,5.12-.25,7.69-.29,3.22-.05,6.48.81,9.67-.35.18-.06.39-.04.72-.07-9.9,7.26-32.7,6.92-41.48.39,1.98-.18,3.61-.52,5.22-.44ZM201.62,161.71c1.36-.79,3.33-.7,5.21-.49,3.48.39,6.93,1.01,10.39,1.54.16.02.31.07.47.1-.02.16-.04.32-.05.48-5.46-.56-10.93-1.11-16.02-1.63ZM224.37,162.18c4.86-1.31,9.7-1.85,14.44.23,0,.13-.01.26-.02.39-4.81-.21-9.62-.41-14.42-.62ZM240.37,164.3c-1.27,6.75-5.35,10.97-11.9,12.6-3.21.8-6.58,1.32-9.88,1.32-6.24,0-12.24-1.31-17.24-5.44-2.1-1.74-3.68-3.91-4.57-6.51-.21-.62-.09-1.36-.14-2.43,1.15,1.04,1.9,1.85,2.77,2.49,2.52,1.84,5.5,2.61,8.48,2.99,4.04.51,8.15.9,12.21.78,5.07-.16,10.16-.87,14.81-3.1,2.01-.96,3.79-2.4,5.62-3.59-.02.1-.08.5-.16.89ZM218.87,155.67c6.48.37,12.94,1.05,18.76,4.33,1.02.57,1.88,1.42,2.82,2.13-.11.15-.22.31-.32.46-2.04-1.76-4.42-2.82-7.06-2.9-2.21-.07-4.44.23-6.64.48-3.04.34-6.07,1.08-9.11,1.09-2.77.01-5.54-.8-8.32-1.07-2.07-.2-4.2-.36-6.24-.09-1.49.19-2.88,1.11-4.71,1.87,1.28-1.08,2.24-2.12,3.4-2.83,2.81-1.71,5.93-2.63,9.18-2.96,2.74-.28,5.52-.65,8.25-.5ZM165.31,155.24c2.66-2.67,5.46-5.23,8.45-7.53,2.77-2.13,5.73-4.1,8.83-5.7,3.44-1.78,7.07-1.86,10.57.57-2.81,2.4-5.88,3.95-9.1,5.27-2.43,1-4.85,2.05-7.19,3.24-3.03,1.54-4.6,4.53-6.69,7-.98,1.16-2.08,2.3-3.33,3.14-.95.64-2.23.81-3.44,1.22-.81-3.05.12-5.39,1.93-7.21Z"/>
    <path class="cls-1" d="M199.22,118.03c.22.29.59.55.59.82.03,2.79,1.33,5.09,2.91,7.21,3.02,4.04,6.17,7.99,9.27,11.97-1.07-.85-2.19-1.63-3.19-2.55-2.18-1.99-4.4-3.95-6.42-6.1-2.4-2.55-3.58-5.75-4.33-9.19-.21,1.2-.38,2.4-.18,3.54.61,3.46,2.79,6.03,5.23,8.36,2.68,2.55,5.52,4.93,8.26,7.43,2.63,2.41,4.76,5.17,5.8,8.65.25.85.45,1.72.67,2.58.25-1.28.43-2.56.22-3.76-.47-2.64-2.36-4.55-3.77-6.69,3.02,2.11,4.44,5.39,6.16,8.87.08-.57.13-.77.12-.97,0-.31-.03-.62-.09-.92-.51-2.69-1.94-4.88-3.85-6.77-4.93-4.87-9.48-10.07-13.24-15.91-1.34-2.08-2.57-4.25-3.33-6.98,1.2,0,2.28-.26,3.16.05,2.16.78,4.43,1.52,6.29,2.81,5.34,3.71,9.3,8.71,12.17,14.51,1.53,3.1,2.55,6.4,1.72,9.92-.32,1.34-.9,2.61-1.36,3.92.9-.8,1.72-1.67,2.22-2.7,1.61-3.34.67-6.66-.55-9.82-1.82-4.74-4.79-8.78-8.26-12.46-2.59-2.75-5.43-5.14-8.93-6.65-2.86-1.23-5.48-1.49-7.29.82Z"/>
    <path class="cls-1" d="M192.23,106.83c1.2,1.68,2.69,3.15,3.86,4.84,1.33,1.9,1.05,4.08.39,6.66,1.13-.53,2.02-.77,2.67-1.3,1.44-1.17,2.12-2.78,2.09-4.66-.04-2.35-1.12-4.3-2.33-6.21-1.74-2.75-3.62-5.41-5.18-8.25-1.22-2.21-1.19-4.63-.02-6.94.53-1.04,1.09-2.06,1.63-3.09-2.55,1.4-3.88,3.48-3.74,6.36.04.76-.19,1.23-.74,1.8-1.55,1.59-2.49,3.61-1.65,5.77.7,1.8,1.89,3.43,3.02,5.02ZM191.53,97.1c1.59,2.53,3.24,5.12,4.85,7.73.99,1.6,2.04,3.18,2.86,4.87,1.2,2.5.66,5.15-1.45,7.5,1.63-4.26-.78-6.95-3.14-9.66-.81-.93-1.63-1.84-2.43-2.78-2.09-2.44-2.59-5.02-.69-7.66Z"/>
    <path class="cls-1" d="M186.54,136.64c-.53-.51-1.01-1.02-1.54-1.47-1.46-1.2-1.69-2.7-1.12-4.39.31-.91.67-1.81,1.05-2.69,1.22-2.86,2.56-5.68,3.66-8.59.67-1.77.05-3.26-1.49-4.37.7,2.57.16,4.87-.86,7.1-.6,1.32-1.29,2.6-1.89,3.92-1.04,2.27-2.3,4.48-1.99,7.12.24,2.11,2.19,3.71,4.19,3.36Z"/>
    <path class="cls-1" d="M355.36,320.53c-.95-5.35-1.27-10.77-1.96-16.14-1.37-10.79-1.74-21.62-1.51-32.48.18-8.43,1.25-16.79,2.29-25.15.92-7.45,2.75-14.72,3.99-22.1.56-3.33.69-6.69.48-10.05-.4-6.54-5.46-12.39-12.19-14.01-1.46-.35-2.04-.96-2.23-2.42-.24-1.88.15-3.71.16-5.56,0-7.34-.02-14.68-.06-22.03,0-1.43-.03-2.84-1.18-4.03-.65-.68-.28-1.79-.29-2.71-.05-3.31-.68-4.13-4.02-4.42-5.15-.44-10.3-.83-15.46-1.06-12.08-.54-24.16-1.07-36.26-1.02-.46,0-.92-.12-1.37-.19h-20.16c-.51.07-1.02.19-1.53.19-2.69-.02-5.38.02-8.07.06.43,1.78.65,3.62.64,5.52-.05,7.86-2.48,14.82-6.82,20.32.03,2-.22,3.81-.64,5.39.2.72.33,1.47.44,2.22h4.99c9.75,0,17.66,7.91,17.66,17.66,0,4.86-1.96,9.27-5.14,12.48.06,5.65.06,11.74,0,19.52-.09,11.8-8.7,21.37-20.47,22.77-.87.1-1.74.16-2.6.16-2.41,0-4.78-.41-7.02-1.15-2.24.72-4.61,1.12-7.05,1.12-1.8,0-3.64-.21-5.47-.64-.52-.12-1.02-.27-1.52-.43-2.2.69-4.52,1.07-6.9,1.07-1.72,0-3.48-.21-5.23-.6-1.53.38-3.13.61-4.8.61-.84,0-1.71,0-2.57,0-.71,0-1.43,0-2.14,0-1.2,0-2.36-.13-3.49-.32-1.22.21-2.5.32-3.83.32-1.05-.04-1.97-.1-2.87-.21.1,1.18.22,2.36.31,3.54.36,5.16.68,10.31.6,15.48-.12,8.37-.73,16.7-1.94,25-1.49,10.17-3.48,20.26-4.98,30.43-.66,4.44-1.34,8.93-1.38,13.4-.19,18.56,6.88,33.63,22.1,44.6.92.66,1.89,1.25,2.83,1.89.1.07.13.25.3.57-1.82-.21-3.49-.41-5.16-.58-.67-.07-1.34-.06-2.01-.07-.41,0-.9-.03-1.02.48-.13.52.34.71.71.88,2.56,1.23,5.1,2.51,7.7,3.65,8.18,3.58,16.91,4.99,25.61,6.57,7.64,1.38,15.36,2.26,23.09,2.64,6.85.33,13.71.57,20.6.3,7.5-.29,14.97-.76,22.4-1.71,8.46-1.08,16.84-2.6,25.14-4.64,6-1.48,11.77-3.5,17.41-5.95,1.24-.54,2.41-1.19,3.46-2.04.36-.29.76-.64.57-1.17-.2-.56-.73-.48-1.19-.48-3.34-.05-6.57.68-9.81,1.32-.75.15-1.49.31-2.36.19,1.35-1,2.7-2,4.05-3.01,8.1-6.02,13.9-13.8,17.45-23.21,1.7-4.51,2.63-9.22,3.14-14.03.77-7.26.16-14.46-.78-21.63-.66-5.07-1.69-10.09-2.58-15.12Z"/>
  </g>
</svg>