<?xml version="1.0" encoding="UTF-8"?>
<svg id="Camada_1" data-name="Camada 1" xmlns="http://www.w3.org/2000/svg" viewBox="0 0 500 500">
  <defs>
    <style>
      .cls-1 {
        fill: #2B674B;
      }
    </style>
  </defs>
  <path class="cls-1" d="M250,476.48c-60.5,0-117.37-23.56-160.15-66.33-42.78-42.78-66.33-99.65-66.33-160.15s23.56-117.37,66.33-160.15S189.5,23.52,250,23.52s117.37,23.56,160.15,66.33c42.78,42.78,66.33,99.65,66.33,160.15s-23.56,117.37-66.33,160.15c-42.78,42.78-99.65,66.33-160.15,66.33ZM250,38.52c-116.61,0-211.48,94.87-211.48,211.48s94.87,211.48,211.48,211.48,211.48-94.87,211.48-211.48S366.61,38.52,250,38.52Z"/>
  <g>
    <path class="cls-1" d="M307.3,393.94c-3.05-5.34-6.12-10.67-9.13-16.02-1.88-3.34-3.69-6.71-5.12-10.28-.68-1.7-.82-3.4-.34-5.17.88-3.22,2.39-6.16,3.95-9.08,2.58-4.82,5.5-9.43,8.18-14.19.8-1.42,1.6-2.84,2.21-4.35.08-.19.27-.41.05-.6-.16-.14-.37-.02-.55.05-.59.23-1.18.46-1.76.72-6.73,3.06-13.23,6.58-19.86,9.84-5.27,2.59-10.53,5.19-15.97,7.43-1.4.58-2.83,1.09-4.28,1.54-.27.09-.6.32-.85.05-.24-.26-.02-.58.07-.86.16-.56.34-1.11.54-1.65,1.55-4.34,3.49-8.52,5.53-12.65,3.55-7.16,7.19-14.28,10.78-21.43,1.02-2.02,2-4.05,2.84-6.16.13-.34.5-.77.19-1.05-.27-.25-.63.19-.94.33-.3.14-.58.32-.87.48-4.58,2.65-9.15,5.33-13.75,7.94-3.74,2.12-7.53,4.16-11.51,5.8-1.9.78-3.8.83-5.74.25-1.83-.54-3.57-1.3-5.28-2.14-4.69-2.28-9.12-5.04-13.62-7.67-2.64-1.54-5.25-3.15-8.08-4.35-.24-.1-.53-.36-.76-.12-.22.23.03.52.12.76.88,2.3,1.99,4.49,3.08,6.68,4.14,8.35,8.49,16.59,12.35,25.08,1.48,3.26,2.96,6.53,4.02,9.97.08.28.35.6.09.85-.24.24-.58,0-.86-.08-1.8-.53-3.56-1.17-5.29-1.91-7.83-3.37-15.34-7.42-22.97-11.19-4.65-2.3-9.25-4.68-14.01-6.74-.25-.11-.5-.36-.83-.15.04.41.27.73.46,1.06,1.97,3.41,3.96,6.82,5.93,10.24,2.73,4.73,5.41,9.48,7.72,14.44,1.41,3.02,1.62,5.97.19,9-.14.3-.25.61-.38.92-1.83,4.2-4.13,8.17-6.43,12.12-2.1,3.6-4.31,7.13-6.16,10.86-.29.59-.54,1.21-.79,1.82-.05.12-.07.3,0,.39.12.18.3.04.44-.02.2-.09.4-.19.6-.28,8.91-4.36,17.85-8.68,26.72-13.13,4.76-2.38,9.56-4.67,14.66-6.28.31-.1.67-.35.94-.12.33.28.06.68-.04,1-.89,2.91-2.14,5.67-3.4,8.43-3.55,7.78-7.48,15.37-11.28,23.02-1.74,3.51-3.49,7.01-5.05,10.6-.1.24-.38.53-.14.74.23.2.51-.09.74-.21,1.68-.9,3.35-1.8,5.02-2.72,5.66-3.1,11.11-6.57,16.7-9.78,4.65-2.67,9.32-3.09,14.21-.73,1.94.93,3.88,1.86,5.75,2.92,5.29,3.02,10.57,6.06,15.86,9.08.78.45,1.58.89,2.74,1.16-.7-1.32-1.32-2.45-1.91-3.59-5.13-10.08-9.98-20.28-14.57-30.62-1.26-2.85-2.52-5.7-3.54-8.65-.08-.23-.27-.5-.1-.7.21-.26.52-.05.77.03,1.55.48,3.09,1.02,4.59,1.64,6.76,2.8,13.25,6.15,19.76,9.46,5.75,2.93,11.41,6.03,17.36,8.54.33.14.66.28,1,.38.33.1.5-.02.34-.38-.09-.2-.2-.39-.31-.59Z"/>
    <path class="cls-1" d="M318.36,161.2c.93,3.89,2.7,4.47,3.67,4.47.52,0,1.32-.17,2.18-.99,1.13-1.09,1.04-2.2.96-3.19-.02-.21-.04-.44-.04-.68l-.21-6.06-.38-.28c-4.54-3.37-5.07-7.9-4.05-11.02,1.23-3.77,4.71-6.13,9.1-6.16h.76s.18-.74.18-.74c.2-.84,0-1.69-.56-2.41-.85-1.09-2.53-1.82-4.17-1.82-.52,0-1.01.07-1.45.22l-.09.03c-4.14,1.84-6.56,5.05-7.42,9.83-.8,4.43-.31,10.4,1.53,18.8ZM324.99,134.37c.23-.07.51-.11.8-.11,1.02,0,2.16.46,2.64,1.08.02.02.03.04.05.07-4.59.39-8.22,3.02-9.7,7.06.8-4.04,2.85-6.58,6.21-8.1ZM323.01,155.75l.18,5.13c0,.27.03.53.05.77.08.92.08,1.2-.37,1.63-.3.29-.6.46-.83.46-.53,0-1.29-.92-1.78-2.97-1.03-4.66-1.64-8.59-1.81-11.9.64,2.59,2.21,5.01,4.57,6.88Z"/>
    <path class="cls-1" d="M361.9,179.56c15.94-5,31.49-12.97,45.03-25.12-13.23,6.46-26.54,11.78-39.95,15.73.2-.47.42-.93.61-1.41l.02-.06c3.07-9.8,2.32-18.21-2.17-24.33-4.26-5.8-11.75-9-21.07-9-1.96,0-4,.14-6.1.41-2.93-3.54-6.11-6.28-9.44-8.13-3.3-1.83-6.67-2.76-10.02-2.76-6.12,0-11.62,3.1-15.49,8.72-6.8,9.88-7.18,25.5-1.03,41.85-.35.62-.75,1.2-1.15,1.79-2.32-.21-4.63-.44-6.96-.76l-.91-35.31-2.84,1.3c2.29-2.04,3.76-4.96,3.76-8.25,0-6.13-5.01-11.12-11.17-11.12s-11.17,4.99-11.17,11.12,5.01,11.12,11.17,11.12c.52,0,1.01-.08,1.51-.15l-13.01,5.97.02.65c0,.13,0,.25.01.38l-7.14,2.92-.12-13.24-23.24,11.03.31,7.88c-.8-.29-1.59-.58-2.45-.87-1.62-4.01-5.55-6.86-10.15-6.86-2.33,0-4.48.74-6.26,1.98-.31-.08-.62-.16-.93-.23l11.12-15.87-7.1-6.83-.53.14c-5.52,1.52-10.21,2.26-14.35,2.26-7.78,0-12.35-2.64-17.18-5.44-3.44-1.99-7-4.05-11.84-5.23h-.04c-2.53-.52-5.08-.77-7.57-.77-10.61,0-19.98,4.53-25.69,12.41-4.16,5.75-5.91,12.71-5.2,20.13-16.5,4.84-33.52,13.25-50.12,26.94,17.42-7.61,35.05-13.09,52.74-16.31,1.26,3.39,2.76,6.69,4.45,9.89-18.68,4.4-38.22,13.15-57.2,28.81,20.99-9.17,42.27-15.25,63.61-17.98,2.03,3.11,4.14,6.17,6.26,9.2-22.36,3.09-46.55,11.94-69.87,31.19,25.73-11.24,51.9-17.84,78.06-19.31.49.73.99,1.46,1.47,2.2l-1-.02c-.3,0-.61,0-.9,0-8.14,0-14.87,2.44-19.45,7.04-1.25,1.25-2.26,2.69-3.16,4.23-18.02,4.56-36.78,13.22-55.03,28.27,17.1-7.47,34.39-12.89,51.74-16.12,0,.2-.05.37-.05.57-4.46,2.6-7.43,6.28-8.83,10.95-1.52,5.07-1.22,11.47.89,19.03l.52,1.87,1.18-1.54c3.65-4.75,7.48-7.16,11.36-7.16,2.51,0,5.16,1,7.86,2.97l.09.06c7.43,4.26,14.86,6.41,22.1,6.41,8.66,0,16.61-3.27,22.39-9.2,5.93-6.08,9.33-14.48,9.84-24.3.01-.29-.01-.58,0-.86,11.84,1.86,23.63,4.88,35.33,9.06-11.25,11.1-19.98,22.51-26.51,34.75l-1.1,2.07,2.25-.69c9.1-2.8,17.57-4.16,25.91-4.16,9.41,0,18.5,1.71,27.8,5.23l.88.33.36-.86c3.67-8.77,8.13-17.25,13.29-25.42,33.73,3.87,81.79.12,116.56-31.1-36.12,17.64-72.81,26.91-110.65,22.31,2.92-4.07,6-8.05,9.28-11.91.16-.18.33-.36.48-.55,31.87,1.03,71.22-5.61,100.89-32.24-30.44,14.87-61.3,23.78-92.9,23.47,4.73-4.9,9.81-9.68,15.22-14.3,26.42-2.46,54.91-11.11,77.69-31.56-21.42,10.46-43.04,17.95-64.99,21.38,1.98-1.48,4-2.94,6.05-4.39,5.67-4.18,10.28-8.9,13.91-14.27ZM283.01,143.39c-5.09,0-9.23-4.12-9.23-9.18s4.14-9.18,9.23-9.18,9.23,4.12,9.23,9.18-4.14,9.18-9.23,9.18ZM271.57,188.2l.02.54c.06,1.97.15,3.98,1.06,5.69-2.12-.59-4.25-1.19-6.39-1.87l-.54-11.7c1.79.51,3.73,1,5.76,1.47.02,1.96.02,3.92.08,5.88ZM271.53,171.74c-.4-.11-.8-.23-1.2-.34l1.21-.79c0,.37,0,.75-.01,1.13ZM241.8,172.33l.44,11.16c-.84-.31-1.67-.62-2.58-.94-.03-1.68-.07-3.23-.1-4.51-.05-1.92-.11-3.41-.17-4.43-.06-1.05-.13-1.76-.41-2.17.94.29,1.89.58,2.83.89ZM242.69,195l.44,11.2c-1.01-.38-2.06-.76-3.19-1.16-.02-3.02-.06-6.92-.11-10.97.95.3,1.9.61,2.85.93ZM228.76,154.97c4.97,0,9.01,4.02,9.01,8.95s-4.04,8.95-9.01,8.95-9.01-4.02-9.01-8.95,4.04-8.95,9.01-8.95ZM237.86,171.09l-1.55.68c.29-.28.55-.6.81-.91.25.07.49.16.74.23ZM207.8,174.43l6.24-8.91c1.35.22,2.69.48,4.04.73,1.08,4.89,5.45,8.56,10.68,8.56.27,0,.51-.06.78-.08l-6.49,2.84c-4.72-1.19-9.79-2.28-15.25-3.15ZM217.34,198.63c-4.51-.98-9.3-1.85-14.38-2.51-1.72-3.35-3.62-6.75-5.85-10.26,6.71.52,13.4,1.41,20.08,2.64l.14,10.13ZM172.43,211.64l.53-.91c1.4,2.17,2.71,4.38,3.98,6.59-2.48.1-4.98.23-7.52.46.82-2.02,1.79-4.07,3.01-6.15ZM182.35,230.09c2.13,7.61.83,11.35-.08,12.83-.98,1.59-2.47,2.43-4.33,2.44-3.16,0-6.57-2.41-8.71-6.14-1.44-2.52-2.19-5.42-2.34-8.55,5.15-.4,10.3-.58,15.46-.57ZM210.22,233.16c-.48,9.34-3.7,17.3-9.29,23.05-5.49,5.63-12.75,8.61-21,8.61-6.88,0-13.97-2.06-21.08-6.13-3.03-2.2-6.04-3.31-8.96-3.31-4.07,0-7.99,2.16-11.68,6.42-3.18-12.92-.56-21.51,7.99-26.22l.51-.28v-.58c-.04-6.61,2.01-12.2,5.93-16.14,4.06-4.09,10.03-6.31,17.29-6.46-2.98,5.43-4.65,10.7-4.97,15.67-.3,4.61.6,8.89,2.6,12.38,2.47,4.32,6.55,7.11,10.39,7.11h0c2.53,0,4.65-1.19,5.98-3.36,1.8-2.94,3.61-10.26-4.51-26.24l-.02-.03c-3.89-7.01-8.64-13.78-13.24-20.31-7.53-10.72-15.33-21.8-19.4-34.18-3.23-9.82-2.09-19.26,3.2-26.57,5.34-7.38,14.13-11.61,24.11-11.61,2.36,0,4.77.24,7.17.73,4.56,1.11,7.99,3.09,11.31,5.01,4.84,2.8,9.84,5.7,18.15,5.7,4.18,0,8.87-.71,14.33-2.18l5.12,4.92-27.1,38.67-7.05-3.15c.84-10.22-.28-17.98-3.39-23.7-3.24-6.41-7.57-10.08-11.88-10.08-2.7,0-5.12,1.51-6.47,4.04-2,3.77-1.35,8.75,1.74,13.34,4.71,7.85,9.38,14.68,14.26,20.87,14.5,20.28,20.85,37.45,19.97,54.01ZM194.05,163.25c.29,2.89.32,6.08.11,9.6-2.14-.16-4.29-.3-6.5-.37-2.2-3.03-4.37-6.21-6.53-9.6,4.31-.02,8.62.11,12.93.37ZM175.08,150.19c-.08-1.49.16-2.98.89-4.34,1.02-1.92,2.75-3.01,4.75-3.01,3.18,0,6.48,2.66,9.23,7.36-4.81-.23-9.76-.27-14.87,0ZM211.32,219.81c-.58-3.38-1.51-6.83-2.66-10.32,2.95.41,5.9.91,8.85,1.46l.04,2.81c0,.53,0,1.05,0,1.57,0,1.99.01,3.9.46,5.85-2.17-.48-4.38-.95-6.69-1.37ZM241.04,227.83c2.9-2.01,5.75-4.75,8.41-8.08,2.53.93,5.05,1.91,7.58,2.95,2.33.96,5.22,1.94,8.54,2.89-3.41,2.68-6.63,5.38-9.7,8.08-.62-.24-1.24-.48-1.86-.73-2.23-.9-6.72-2.86-12.96-5.11ZM265.28,214.63c2.63-1.93,5.66-4.87,9.14-9.26,5.02,1.06,10.66,1.97,16.74,2.64-4.74,2.76-9.47,5.67-14.06,8.93-.37.26-.7.52-1.06.79-3.57-.91-7.15-1.93-10.75-3.1ZM304.08,230.76c-11.92,14.05-21.48,29.45-28.43,45.77-9.22-3.38-18.26-5.03-27.61-5.03-7.84,0-15.79,1.17-24.23,3.57,11.28-20.25,28.63-38.28,54.4-56.55,8.1-5.74,16.64-10.47,24.9-15.04,11.02-6.1,21.44-11.86,30.3-19.61,10.76-9.94,15.9-18.54,14.47-24.22-.94-3.72-4.41-5.34-7.16-6.05l-1.29-.33.08,1.33c.68,10.71-1.41,18.98-6.04,23.92-3.04,3.24-7.16,4.95-11.93,4.95-4.2,0-8.93-1.34-13.68-3.86l-.87-.46-.45.88c-7.57,14.86-14.02,21.49-20.9,21.49-2.45,0-5.02-.9-7.65-2.67l-.8-.54-.54.79c-5.12,7.41-12.89,17.26-21.21,17.26-1.43,0-2.87-.29-4.27-.87l-.72-.3-.44.64c-6.12,8.8-13.59,14.05-19.98,14.05-4.56,0-7.93-2.72-9.76-7.88-.77-2.17-.76-4.36-.76-6.67,0-.53,0-1.06,0-1.6l-.45-32.29,18.39-8.05c.32,4.88.54,24.27.61,37.41-.02,1.61.37,2.85,1.16,3.65.62.63,1.48.97,2.47.97,1.32,0,2.89-.58,4.67-1.72l1.05-.68-.92-.85c-.6-.55-1.28-2.35-1.41-5.77l-2.05-52.32,19.35-9.18.12,13.06,7.52-3.07.76,13.9-7.34,4.74,1.13,24.29v.12c.41,2.31,1.96,2.56,2.61,2.56,1.81,0,4.27-1.66,7.54-5.06l.59-.62-.55-.67c-1.12-1.36-1.18-3.37-1.24-5.49l-.02-.54c-.21-6.07-.11-12.21-.01-18.15.09-5.76.19-11.7,0-17.61l17.91-8.22,1.1,42.84,1.39-.75c4.52-2.46,7.99-5.91,10.31-10.26l.21-.39-.16-.41c-6.08-15.91-5.84-31.04.66-40.48,3.5-5.08,8.43-7.87,13.89-7.87,6.29,0,12.78,3.76,18.3,10.6l.35.43.54-.08c2.2-.31,4.34-.47,6.37-.47,8.69,0,15.62,2.92,19.51,8.21,4.1,5.59,4.76,13.39,1.9,22.57-3.85,9.72-10.04,17.63-18.92,24.18-16.64,11.71-31.03,24.66-42.77,38.51ZM295.73,199.06c3.59-3.17,6.72-7.7,9.43-12.42,7.1.26,14.59.12,22.27-.51-6.7,5.1-14.15,9.47-21.99,13.83-3.23-.2-6.46-.49-9.71-.9ZM341.52,155.87c2.49.9,3.99,2.32,4.48,4.25.96,3.79-1.89,9.55-7.9,16.27-.24.03-.49.07-.73.1,3.08-5.09,4.52-12.09,4.16-20.63Z"/>
    <path class="cls-1" d="M173.25,162.37c-18.59-26.55,25.74-44.5,28.03,9.86l22.64-32.13c-13.73,1.75-19.68,2.15-29.73-3.35-8.2-4.49-15.29-8.32-25.27-6.57-18.09,3.17-24.71,21.91-13.9,41.33,9.92,17.82,23.45,33.33,32.31,51.12,10.12,20.33-4.59,37.31-18.93,25.03-6.81-7.9-9.07-17.7-6.77-29.42-7.39,3.53-11.12,10.04-10.84,18.81-6.65,3.85-10,8.69-8.99,15.88,5.88-2.62,11.75-2.37,17.63.73,9.13,6.24,18.55,9.5,28.64,6.21,22.29-9.37,27.33-40.13.71-75.18-5.18-6.82-10.52-14.64-15.52-22.32Z"/>
    <path class="cls-1" d="M235.04,216.72c-1.05-1.54-1.52-3.48-1.43-5.93l-.32-30.9v-.05l-9.64,4.05h-.02s.3,33.58.3,33.58v.06c.01,1.2.02,2.14.39,3.29.79,2.46,2.2,3.93,4.14,4.47.54.15,1.1.26,1.73.26.09,0,.2-.04.3-.04.02,0,.05,0,.08-.01,2.87-.13,6.51-1.8,10.6-4.93l.05-.04-.07-.02c-2.89-.78-4.88-2.02-6.11-3.81ZM230.19,225.49c-.05,0-.09-.02-.14-.02.06,0,.1.02.16.02,0,0-.02,0-.02,0Z"/>
    <path class="cls-1" d="M260.13,198.32l-1.05-27.09,7.67-4.04-.9-5.54-7.68,3.89-.15-14.07-10.38,5.09,2.2,47.15c.1,2.09-.13,4.1.93,5.97,2.66,4.67,8.25,3.47,15.52-4.03-4.19-1.38-6-3.95-6.17-7.33Z"/>
    <path class="cls-1" d="M288.12,186.49l-1.35-35.62-8.88,3.59.81,33.22c.05,2.15-.13,4.06.9,6,3.05,5.74,10.18,5.73,14.99-2.41-3.76.4-5.92-1.2-6.47-4.79Z"/>
    <path class="cls-1" d="M333.09,143.38c-9.09-5.48-11.57,7.29-4.04,7.67.74,3.53.72,7.06.37,10.59-.85,11.6-13.85,10.56-15.79,0-1.56-10.8-1.2-21.37,4.04-29.94-10.83,1.93-16.39,14.93-10.32,38.04,3.36,12.81,24.24,11.52,26.11-.06,1.53-6.69,1.54-13.39.51-20.08,16.74-2.08,25.58,8.28,13.08,24.97-51.9,52.3-65.7,28.14-114.56,94.08,13.59-2.07,27.17-1.22,40.76,2.56,39.64-76.65,65.97-66,87.02-102.98,11.06-21.77-9.06-31.32-27.17-24.83Z"/>
    <path class="cls-1" d="M228.76,169.73c3.23,0,5.84-2.6,5.84-5.81s-2.61-5.81-5.84-5.81-5.84,2.6-5.84,5.81,2.62,5.81,5.84,5.81Z"/>
    <path class="cls-1" d="M282.94,128.01c-3.44,0-6.23,2.77-6.23,6.2s2.79,6.2,6.23,6.2,6.23-2.78,6.23-6.2-2.79-6.2-6.23-6.2Z"/>
    <polygon class="cls-1" points="176.94 104.23 181.67 104.23 181.67 98.62 176.94 98.62 176.94 93.02 182.25 93.02 182.25 87.12 169.27 87.12 169.27 116.62 176.94 116.62 176.94 104.23"/>
    <path class="cls-1" d="M189.55,116.62l.46-5.3h2.75l.41,5.3h7.84l-4.39-29.5h-11.09l-3.91,29.5h7.93ZM191.39,93.7c.39,4.92.78,9.05,1.17,12.39h-2.64c.2-2.61.69-6.74,1.47-12.39Z"/>
    <path class="cls-1" d="M209.03,97.16l2.81,19.46h4.76l2.67-19.91v19.91h6.71v-29.5h-9.98l-1.76,13.77-1.09-7.5c-.31-2.41-.62-4.5-.91-6.27h-9.92v29.5h6.7v-19.46Z"/>
    <rect class="cls-1" x="229.06" y="87.12" width="7.67" height="29.5"/>
    <polygon class="cls-1" points="239.09 81.25 232.61 81.25 229.4 86.19 233.1 86.19 239.09 81.25"/>
    <polygon class="cls-1" points="252.14 110.71 247.47 110.71 247.47 87.12 239.81 87.12 239.81 116.62 252.14 116.62 252.14 110.71"/>
    <rect class="cls-1" x="254" y="87.12" width="7.67" height="29.5"/>
    <path class="cls-1" d="M271.4,111.31h2.74l.41,5.3h7.84l-4.39-29.5h-11.09l-3.91,29.5h7.93l.46-5.3ZM272.77,93.7c.39,4.92.78,9.05,1.17,12.39h-2.64c.2-2.61.69-6.74,1.47-12.39Z"/>
    <path class="cls-1" d="M304.06,116.31c.91-.2,1.68-.55,2.3-1.06.62-.5,1.05-1.2,1.3-2.09.25-.89.37-2.66.37-5.31v-10.33c0-2.79-.08-4.67-.25-5.62s-.6-1.82-1.27-2.6c-.68-.78-1.67-1.33-2.98-1.67s-3.81-.51-7.52-.51h-5.74v29.5h9.68c1.83,0,3.21-.1,4.12-.3ZM297.94,111.57v-19.4c.84,0,1.41.09,1.71.26.3.17.5.45.58.83.08.38.13,1.23.13,2.57v11.46c0,1.97-.13,3.17-.38,3.62-.25.44-.94.66-2.04.66Z"/>
    <path class="cls-1" d="M312.26,114.14c.76,1.03,1.78,1.81,3.03,2.32,1.26.52,2.67.78,4.25.78,1.66,0,3.12-.27,4.37-.82,1.25-.55,2.25-1.33,2.98-2.35.73-1.02,1.17-2.15,1.31-3.38.14-1.23.21-3.33.21-6.29v-5.05c0-3.04-.07-5.16-.22-6.38-.15-1.22-.6-2.34-1.37-3.37-.77-1.03-1.78-1.81-3.03-2.32-1.26-.52-2.68-.77-4.25-.77-1.67,0-3.12.27-4.37.82-1.25.55-2.24,1.33-2.98,2.35-.73,1.02-1.17,2.15-1.31,3.38-.14,1.23-.21,3.33-.21,6.29v5.05c0,3.04.07,5.16.22,6.38.15,1.22.6,2.34,1.37,3.37ZM318.34,94.7c0-1.52.11-2.43.32-2.74.21-.31.52-.46.92-.46.47,0,.79.19.94.57.15.38.23,1.26.23,2.63v13.55c0,1.74-.07,2.84-.22,3.3-.15.46-.48.69-1,.69s-.83-.2-.97-.6c-.14-.4-.21-1.46-.21-3.17v-13.77Z"/>
  </g>
</svg>