<?xml version="1.0" encoding="UTF-8"?>
<svg id="Camada_1" data-name="Camada 1" xmlns="http://www.w3.org/2000/svg" viewBox="0 0 500 500">
  <defs>
    <style>
      .cls-1 {
        fill: #2B674B;
      }
    </style>
  </defs>
  <path class="cls-1" d="M250,476.48c-60.5,0-117.37-23.56-160.15-66.33-42.78-42.78-66.33-99.65-66.33-160.15s23.56-117.37,66.33-160.15S189.5,23.52,250,23.52s117.37,23.56,160.15,66.33c42.78,42.78,66.33,99.65,66.33,160.15s-23.56,117.37-66.33,160.15c-42.78,42.78-99.65,66.33-160.15,66.33ZM250,38.52c-116.61,0-211.48,94.87-211.48,211.48s94.87,211.48,211.48,211.48,211.48-94.87,211.48-211.48S366.61,38.52,250,38.52Z"/>
  <g>
    <path class="cls-1" d="M398.09,349.22H101.91v-198.44h296.17v198.44ZM102.91,348.22h294.17v-196.44H102.91v196.44Z"/>
    <polygon class="cls-1" points="230.92 214.54 223.33 218.92 232.09 218.54 225.63 224.46 234.1 222.2 215.9 245.09 238.81 226.91 236.55 235.37 242.47 228.92 242.1 237.66 246.48 230.08 249.81 259.13 253.15 230.08 257.53 237.66 257.16 228.92 263.08 235.37 260.82 226.91 283.73 245.09 265.53 222.2 274 224.46 267.54 218.54 276.29 218.92 268.71 214.54 297.78 211.21 268.71 207.88 276.29 203.5 267.54 203.87 274 197.96 265.53 200.21 283.73 177.32 260.82 195.51 263.08 187.05 257.16 193.5 257.53 184.76 253.15 192.33 249.81 163.29 246.48 192.33 242.1 184.76 242.47 193.5 236.55 187.05 238.81 195.51 215.9 177.32 234.1 200.21 225.63 197.96 232.09 203.87 223.33 203.5 230.92 207.88 201.85 211.21 230.92 214.54"/>
    <rect class="cls-1" x="102.41" y="267.91" width="295.17" height="21.51"/>
    <rect class="cls-1" x="102.41" y="310.94" width="295.17" height="21.51"/>
  </g>
</svg>