<?xml version="1.0" encoding="UTF-8"?>
<svg id="Camada_1" data-name="Camada 1" xmlns="http://www.w3.org/2000/svg" viewBox="0 0 500 500">
  <defs>
    <style>
      .cls-1 {
        fill: #2B674B;
      }
    </style>
  </defs>
  <path class="cls-1" d="M250,476.48c-60.5,0-117.37-23.56-160.15-66.33-42.78-42.78-66.33-99.65-66.33-160.15s23.56-117.37,66.33-160.15S189.5,23.52,250,23.52s117.37,23.56,160.15,66.33c42.78,42.78,66.33,99.65,66.33,160.15s-23.56,117.37-66.33,160.15c-42.78,42.78-99.65,66.33-160.15,66.33ZM250,38.52c-116.61,0-211.48,94.87-211.48,211.48s94.87,211.48,211.48,211.48,211.48-94.87,211.48-211.48S366.61,38.52,250,38.52Z"/>
  <g>
    <path class="cls-1" d="M363.46,215.77c-18.94,0-34.44,15.5-34.44,34.45s15.5,34.02,34.44,34.02,34.02-15.07,34.02-34.02-15.07-34.45-34.02-34.45Z"/>
    <path class="cls-1" d="M250.21,215.77c-18.94,0-34.44,15.5-34.44,34.45s15.5,34.02,34.44,34.02,34.02-15.07,34.02-34.02-15.07-34.45-34.02-34.45Z"/>
    <path class="cls-1" d="M136.97,215.77c-18.94,0-34.44,15.5-34.44,34.45s15.5,34.02,34.44,34.02,34.02-15.07,34.02-34.02-15.07-34.45-34.02-34.45Z"/>
  </g>
</svg>