<?xml version="1.0" encoding="UTF-8"?>
<svg id="Camada_1" xmlns="http://www.w3.org/2000/svg" version="1.1" viewBox="0 0 500 500">
  <!-- Generator: Adobe Illustrator 29.3.0, SVG Export Plug-In . SVG Version: 2.1.0 Build 67)  -->
  <defs>
    <style>
      .st0 {
        fill: #006343;
      }
    </style>
  </defs>
  <path class="st0" d="M437.4,361.2L285.8,97.7c-7.4-12.9-20.8-20.6-35.7-20.6s-28.3,7.7-35.7,20.6L62.7,361.2c-7.4,12.9-7.4,28.3,0,41.2,7.4,12.9,20.8,20.6,35.7,20.6h303.2c14.9,0,28.2-7.7,35.7-20.6,7.4-12.9,7.4-28.3,0-41.2h.1ZM423.1,394.1c-4.5,7.7-12.5,12.3-21.4,12.3H98.4c-8.9,0-16.9-4.6-21.4-12.3-4.5-7.7-4.5-16.9,0-24.7L228.6,105.8c4.5-7.8,12.5-12.4,21.4-12.4s16.9,4.6,21.4,12.4l151.6,263.5c4.5,7.7,4.4,17,0,24.7h0ZM250.9,295.2c10.1,0,18.5-7.9,19-18l5.9-105.2c.4-6.8-2.1-13.6-6.8-18.5-4.7-4.9-11.3-7.8-18.1-7.8s-13.4,2.8-18.1,7.8c-4.7,4.9-7.2,11.7-6.8,18.5l5.9,105.2c.5,10.1,8.9,18,19,18h.1ZM244.8,164.8c1.6-1.7,3.8-2.6,6.1-2.6s4.5.9,6.1,2.6c1.6,1.7,2.4,4,2.3,6.3l-5.9,105.2c0,1.4-1.2,2.4-2.6,2.4s-2.5-1.1-2.6-2.4l-5.9-105.2c-.1-2.4.7-4.6,2.3-6.3ZM250.9,317.8c-13.8,0-24.9,11.2-24.9,24.9s11.2,24.9,24.9,24.9,24.9-11.2,24.9-24.9-11.2-24.9-24.9-24.9ZM250.9,351.3c-4.7,0-8.4-3.8-8.4-8.4s3.8-8.4,8.4-8.4,8.4,3.8,8.4,8.4-3.8,8.4-8.4,8.4Z"/>
</svg>