<?xml version="1.0" encoding="UTF-8"?>
<svg id="Camada_1" xmlns="http://www.w3.org/2000/svg" version="1.1" viewBox="0 0 500 500">
  <!-- Generator: Adobe Illustrator 29.3.0, SVG Export Plug-In . SVG Version: 2.1.0 Build 67)  -->
  <defs>
    <style>
      .st0 {
        fill: #006343;
      }
    </style>
  </defs>
  <path class="st0" d="M448.6,202.5v-45.4c0-29.2-23.8-53-53-53h-1.5v-6.1c0-14.2-11.5-25.7-25.7-25.7s-25.7,11.5-25.7,25.7v6.1h-166.5v-6.1c0-14.2-11.5-25.7-25.7-25.7s-25.7,11.5-25.7,25.7v6.1h-1.5c-29.2,0-53,23.8-53,53v45.4h0v181.6c0,29.2,23.8,53,53,53h272.4c29.2,0,53-23.8,53-53v-181.6h0ZM357.7,98.1c0-5.8,4.8-10.6,10.6-10.6s10.6,4.8,10.6,10.6v27.2c0,5.8-4.8,10.6-10.6,10.6s-10.6-4.8-10.6-10.6v-27.2ZM139.8,98.1c0-5.8,4.8-10.6,10.6-10.6s10.6,4.8,10.6,10.6v27.2c0,5.8-4.8,10.6-10.6,10.6s-10.6-4.8-10.6-10.6v-27.2ZM85.3,157.1c0-20.9,17-37.8,37.8-37.8h1.5v6.1c0,14.2,11.5,25.7,25.7,25.7s25.7-11.5,25.7-25.7v-6.1h166.5v6.1c0,14.2,11.5,25.7,25.7,25.7s25.7-11.5,25.7-25.7v-6.1h1.5c20.9,0,37.8,17,37.8,37.8v37.8H85.3v-37.8ZM433.4,384.1c0,20.9-17,37.8-37.8,37.8H123.1c-20.9,0-37.8-17-37.8-37.8v-174.1h348.1v174.1ZM248,263.1c0-6.3,5.1-11.4,11.4-11.4s11.4,5.1,11.4,11.4-5.1,11.4-11.4,11.4-11.4-5.1-11.4-11.4ZM187.5,263.1c0-6.3,5.1-11.4,11.4-11.4s11.4,5.1,11.4,11.4-5.1,11.4-11.4,11.4-11.4-5.1-11.4-11.4ZM308.6,263.1c0-6.3,5.1-11.4,11.4-11.4s11.4,5.1,11.4,11.4-5.1,11.4-11.4,11.4-11.4-5.1-11.4-11.4ZM369.7,266.7c-.3-1-.6-2.4-.6-3.6s0-.7,0-1.1c.2-1.7.4-2.2.6-2.7.2-.7.6-1.5,1-2.1l.4-.6c.3-.4.6-.8.9-1.1,3.5-3.6,7-4.1,9.5-3.7,1.9.3,2.6.5,3.2.7,1,.3,1.8.8,2.6,1.5.3.3.7.5.9.8l.8.8c.5.5.8,1,1.2,1.6.2.3.7,1.2.8,1.5.3.8.5,1.4.7,2.2,0,.3.1.6.1.9.2,2.2,0,3.9-.7,5.6-.7,1.6-1.6,2.8-2.5,3.7-1,1-2.2,1.8-3.7,2.5-1.8.6-3.1.8-4.4.8s-2.9-.3-4.3-.8c-1.8-.8-3-1.8-3.7-2.5,0,0,0,0,0,0-1-1-1.8-2.2-2.4-3.6-.1-.2-.2-.5-.3-.7ZM130.3,324.1c-2.2-2.2-3.3-5-3.3-8s1.2-5.9,3.3-8c4-4,12-4.1,16,0,2.1,2.1,3.3,5,3.3,8s-1.2,5.9-3.3,8c-2.1,2.1-5,3.3-8,3.3s-5.9-1.2-8-3.3ZM187.5,316c0-6.3,5.1-11.4,11.4-11.4s11.4,5.1,11.4,11.4-5.1,11.4-11.4,11.4-11.4-5.1-11.4-11.4ZM248,316c0-6.3,5.1-11.4,11.4-11.4s11.4,5.1,11.4,11.4-5.1,11.4-11.4,11.4-11.4-5.1-11.4-11.4ZM308.6,316c0-6.3,5.1-11.4,11.4-11.4s11.4,5.1,11.4,11.4-5.1,11.4-11.4,11.4-11.4-5.1-11.4-11.4ZM369.7,319.7c-.3-1-.6-2.4-.6-3.6,0-3,1.2-5.9,3.3-8,2.4-2.4,5.8-3.7,9.1-3.3,1.9.3,2.6.5,3.2.7,1,.3,1.8.8,2.5,1.5.3.2.6.4.7.6,1,1,1.4,1.5,1.7,2,.5.7,1,1.7,1.3,2.5l.4,1.3c.2.6.3,1.3.3,1.9,0,1.9-.2,3.5-.8,5.1-.7,1.6-1.6,2.8-2.5,3.7-1,1-2.2,1.8-3.7,2.5-1.8.6-3.1.8-4.4.8s-2.9-.3-4.3-.8c-1.8-.8-3-1.8-3.7-2.5,0,0,0,0,0,0-1-1-1.8-2.2-2.4-3.6-.1-.2-.2-.5-.3-.7ZM248,369c0-6.3,5.1-11.4,11.4-11.4s11.4,5.1,11.4,11.4-5.1,11.4-11.4,11.4-11.4-5.1-11.4-11.4ZM308.6,369c0-6.3,5.1-11.4,11.4-11.4s11.4,5.1,11.4,11.4-5.1,11.4-11.4,11.4-11.4-5.1-11.4-11.4ZM187.5,369c0-6.3,5.1-11.4,11.4-11.4s11.4,5.1,11.4,11.4-5.1,11.4-11.4,11.4-11.4-5.1-11.4-11.4ZM369.9,373.3c.6,1.4,1.5,2.6,2.5,3.7,2.2,2.1,5,3.3,8,3.3s2.8-.3,4.3-.8c1.4-.6,2.7-1.4,3.8-2.5.9-.9,1.8-2.1,2.5-3.7.6-1.6.9-3.2.8-5.1,0-.6-.1-1.3-.3-1.9l-.4-1.3c-.3-.9-.8-1.8-1.3-2.5-.3-.4-.7-1-1.7-2-.2-.2-.5-.4-.7-.6-.7-.6-1.6-1.1-2.5-1.5-.6-.2-1.3-.5-3.2-.7-3.3-.5-6.7.9-9.1,3.3-2.1,2.1-3.3,5-3.3,8s.2,2.6.6,3.6c0,.2.2.5.3.7ZM381.7,367.6h0c0-.1.1-.3.1-.3l-.2.3v-.2c.1,0,0,.4,0,.4v-.2ZM130.2,271.1c-2.2-2.2-3.3-5.1-3.3-8s1.2-5.9,3.3-8c.5-.5,1.1-1,1.8-1.5.9-.5,1.4-.8,1.9-1,.7-.3,1.3-.5,2-.6,0,0,0,0,0,0l1.5-.2c3.2-.4,6.5,1,8.8,3.3,2.1,2.1,3.3,5,3.3,8s-1.2,5.9-3.3,8c-2.1,2.1-5,3.3-8,3.3s-2.9-.3-4.3-.8c-1.8-.8-3-1.8-3.7-2.5ZM127.5,372.6c-.3-1-.6-2.4-.6-3.6s0-.7,0-1c.2-1.7.4-2.3.6-2.8.2-.8.6-1.6,1.1-2.3h0c.2-.3.7-1,1-1.3,4.6-4.9,12.5-4.8,16.6-.7.3.3.5.5.7.8l.7.9c.4.6.8,1.2,1,1.9.4,1,.5,1.5.7,2.2,0,.3.1.6.1.9.2,2.2,0,3.9-.7,5.6-.7,1.6-1.6,2.8-2.5,3.7-2.1,2.1-5,3.3-8,3.3s-5.9-1.2-8-3.3c-1-1.1-1.9-2.3-2.5-3.7-.1-.2-.2-.5-.3-.7Z"/>
</svg>