<?xml version="1.0" encoding="UTF-8"?>
<svg id="Camada_1" data-name="Camada 1" xmlns="http://www.w3.org/2000/svg" viewBox="0 0 500 500">
  <defs>
    <style>
      .cls-1 {
        fill: #333;
      }
    </style>
  </defs>
  <path class="cls-1" d="M463.21,407.79l-169.99-222.88v-101.4c0-8.15-6.67-14.82-14.82-14.82-3.94,0-7.51,1.58-10.17,4.11h-98.92c-7.76,0-14.11,6.35-14.11,14.11v63.78c0,7.76,6.35,14.11,14.11,14.11h94.28v16.67l-82.79,108.55-18.73-26.7c-2.74-3.91-7.22-6.23-11.99-6.23s-9.25,2.33-11.99,6.23l-101.65,144.93c-3.14,4.47-3.52,10.32-1,15.16,2.52,4.85,7.53,7.89,12.99,7.89h403.14c5.57,0,10.65-3.16,13.12-8.15,2.47-4.99,1.9-10.95-1.48-15.37ZM189.13,140.15c-5.18,0-9.42-2.69-9.42-5.98v-30.74c0-3.29,4.24-5.98,9.42-5.98h74.46v42.71h-74.46Z"/>
</svg>