<?xml version="1.0" encoding="UTF-8"?>
<svg id="Camada_1" data-name="Camada 1" xmlns="http://www.w3.org/2000/svg" viewBox="0 0 500 500">
  <defs>
    <style>
      .cls-1 {
        fill: #333;
      }
    </style>
  </defs>
  <path class="cls-1" d="M449.93,203.35c-2.17-6.66-7.93-11.52-14.86-12.53l-116.47-16.93-52.09-105.54c-3.1-6.28-9.5-10.26-16.51-10.26s-13.4,3.98-16.51,10.26l-52.09,105.54-116.47,16.93c-6.93,1.01-12.69,5.86-14.86,12.53-2.16,6.67-.36,13.98,4.66,18.87l84.28,82.15-19.89,116c-1.18,6.91,1.65,13.89,7.32,18.01,3.21,2.33,7.01,3.51,10.82,3.51,2.93,0,5.87-.7,8.57-2.12l104.17-54.77,104.18,54.77c6.2,3.27,13.72,2.71,19.39-1.4,5.67-4.12,8.5-11.1,7.32-18l-19.9-116,84.28-82.15c5.02-4.89,6.83-12.21,4.66-18.87Z"/>
</svg>