<?xml version="1.0" encoding="UTF-8"?>
<svg id="Camada_1" data-name="Camada 1" xmlns="http://www.w3.org/2000/svg" viewBox="0 0 500 500">
  <defs>
    <style>
      .cls-1 {
        fill: #333;
      }
    </style>
  </defs>
  <path class="cls-1" d="M255.14,113.7C88.17,113.7,7.68,248.16,7.68,248.16c0,0,97.38,138.14,247.46,138.14s237.18-138.14,237.18-138.14c0,0-70.2-134.46-237.18-134.46ZM254.97,322.82c-39.63,0-71.76-32.13-71.76-71.76,0-5.3.62-10.45,1.71-15.43,4.89,2.98,10.57,4.8,16.71,4.8,17.8,0,32.22-14.43,32.22-32.22,0-8.64-3.44-16.44-8.98-22.23,9.16-4.25,19.33-6.68,30.1-6.68,39.63,0,71.76,32.13,71.76,71.76s-32.13,71.76-71.76,71.76Z"/>
</svg>